<?xml version="1.0" encoding="UTF-8" ?>
<!DOCTYPE svg PUBLIC "-//W3C//DTD SVG 1.1//EN" "http://www.w3.org/Graphics/SVG/1.1/DTD/svg11.dtd">
<svg width="720pt" height="1080pt" viewBox="0 0 720 1080" version="1.1" xmlns="http://www.w3.org/2000/svg">
<g id="#ffffffff">
</g>
<g id="#020101ff">
<path fill="#020101" opacity="1.00" d=" M 326.28 152.35 C 328.46 151.46 330.81 151.13 333.12 151.76 C 336.28 152.71 339.45 150.90 342.61 151.59 C 352.36 155.02 362.77 156.20 373.03 156.76 C 374.85 157.01 376.33 158.23 377.83 159.20 C 383.31 163.27 390.02 165.18 396.67 166.23 C 400.50 166.83 401.46 171.03 402.99 173.95 C 404.37 177.10 408.96 178.15 408.89 182.04 C 409.28 186.89 410.64 191.61 410.68 196.49 C 410.55 199.26 412.35 201.55 413.09 204.11 C 413.22 206.42 412.48 208.67 412.46 210.98 C 413.10 214.22 415.29 217.30 414.34 220.73 C 412.56 227.60 412.05 234.70 411.36 241.74 C 409.19 251.66 407.24 261.75 407.47 271.95 C 407.39 274.47 407.21 276.99 407.07 279.52 C 411.43 277.60 417.77 275.23 421.48 279.51 C 428.02 286.88 427.04 297.50 426.22 306.59 C 423.43 319.87 415.95 333.90 402.45 338.69 C 400.59 346.66 399.58 355.03 395.31 362.19 C 385.27 379.86 371.55 395.62 354.86 407.30 C 354.57 407.52 354.00 407.95 353.71 408.16 C 353.76 409.39 353.83 410.62 353.94 411.85 C 354.07 413.35 354.22 414.86 354.38 416.37 C 353.29 417.67 352.17 418.96 351.00 420.21 C 350.47 416.89 349.96 413.57 349.48 410.26 C 339.54 412.80 329.22 412.93 319.16 411.12 C 318.58 414.41 317.98 417.71 317.34 421.00 C 316.55 420.34 315.76 419.70 314.97 419.07 C 314.74 415.43 314.52 411.80 314.33 408.16 C 313.82 407.91 312.82 407.42 312.32 407.17 C 306.52 404.41 301.22 400.73 296.00 397.01 C 285.10 389.09 274.68 380.08 267.23 368.74 C 263.83 363.79 262.69 357.67 259.24 352.79 C 254.68 350.79 249.65 349.59 245.78 346.25 C 233.99 336.60 226.37 321.33 227.52 305.94 C 227.90 301.81 229.40 297.17 233.22 295.01 C 236.47 293.88 240.02 294.60 243.39 294.56 C 242.67 292.36 241.88 290.19 240.85 288.13 C 237.37 281.26 237.27 273.33 234.36 266.26 C 232.29 261.36 231.91 255.98 229.96 251.05 C 226.80 244.17 226.77 236.39 226.46 228.97 C 225.83 226.53 224.32 224.41 223.73 221.96 C 223.88 219.07 226.78 216.78 226.06 213.81 C 225.06 208.87 226.17 203.82 225.26 198.86 C 224.58 196.13 226.78 194.24 228.42 192.45 C 231.15 189.75 231.01 185.40 233.60 182.60 C 235.11 181.17 237.17 180.61 239.04 179.82 C 242.42 178.64 245.14 176.24 248.10 174.32 C 251.04 172.49 252.96 169.35 256.10 167.81 C 259.93 166.99 264.25 168.16 267.58 165.57 C 270.85 164.23 271.78 159.99 275.14 158.93 C 278.69 158.97 282.24 160.07 285.79 159.43 C 288.40 158.62 290.32 156.30 293.06 155.79 C 296.92 155.15 300.71 153.78 304.68 154.09 C 307.31 154.41 309.66 153.00 312.16 152.47 C 316.86 152.07 321.71 154.24 326.28 152.35 M 326.26 163.68 C 325.10 161.54 324.08 159.30 322.54 157.41 C 319.01 157.68 315.49 158.02 311.96 157.60 C 309.20 157.19 310.11 160.75 310.07 162.39 C 313.18 162.97 316.27 163.67 319.34 164.44 C 317.84 166.18 316.34 167.93 314.86 169.69 C 312.42 168.39 310.05 166.69 307.25 166.34 C 304.68 167.69 302.77 169.97 300.72 171.97 C 300.76 168.53 300.85 165.09 300.96 161.66 C 296.74 161.13 293.74 164.01 290.42 166.00 C 285.05 166.93 279.21 165.62 274.30 168.70 C 276.76 170.54 279.54 172.04 281.59 174.37 C 283.17 176.69 283.91 179.48 285.45 181.84 C 290.42 183.55 294.04 177.64 298.99 177.96 C 301.05 177.78 302.34 179.51 303.58 180.86 C 301.36 181.14 299.08 181.16 296.95 181.88 C 294.39 183.54 293.02 186.42 291.33 188.86 C 289.26 187.94 287.23 186.80 284.97 186.42 C 283.04 186.49 281.22 187.22 279.39 187.75 C 280.13 185.27 281.01 182.77 281.08 180.16 C 280.27 177.36 277.49 176.05 274.78 175.88 C 274.32 178.08 273.96 180.32 273.23 182.46 C 272.65 184.61 270.27 185.32 268.64 186.49 C 268.96 184.63 269.30 182.78 269.66 180.93 C 268.90 180.61 268.15 180.29 267.41 179.97 C 263.61 183.81 259.18 186.98 255.60 191.04 C 255.52 189.22 254.98 187.31 255.52 185.52 C 256.76 183.17 258.86 181.45 260.70 179.59 C 259.54 177.82 258.73 174.62 256.11 174.87 C 252.59 176.94 250.13 180.56 246.22 182.03 C 243.66 183.43 239.62 183.67 239.08 187.15 C 237.97 192.61 233.81 196.38 229.98 200.07 C 232.32 204.77 232.58 210.06 232.67 215.21 C 237.31 212.43 240.28 207.80 244.40 204.46 C 246.00 204.48 247.58 204.80 249.16 205.05 C 247.25 207.76 245.72 210.73 244.72 213.90 C 244.31 214.27 243.49 215.03 243.08 215.41 C 239.38 214.64 236.72 218.23 234.79 220.83 C 232.38 223.99 235.98 227.15 237.43 229.87 C 236.39 232.64 233.48 236.12 236.13 238.83 C 240.14 241.96 245.50 243.55 250.56 242.62 C 248.04 239.71 243.92 237.08 244.76 232.68 C 246.64 232.56 248.54 232.55 250.39 232.17 C 252.24 232.03 252.53 229.85 253.44 228.60 C 250.51 227.93 247.25 227.97 244.66 226.31 C 243.52 224.90 243.35 222.96 242.75 221.30 C 249.04 223.41 255.96 222.14 262.06 225.02 C 262.48 219.94 261.52 214.93 259.97 210.12 C 267.36 211.04 272.76 216.80 279.13 220.14 C 281.95 220.13 284.02 217.72 286.26 216.27 C 289.22 217.33 292.33 219.79 295.58 218.75 C 299.19 216.66 297.02 212.33 296.33 209.26 C 299.49 209.38 302.65 209.53 305.80 209.78 C 304.94 211.57 304.08 213.36 303.21 215.15 C 305.58 216.91 308.21 220.02 311.46 218.39 C 315.94 216.47 320.74 215.74 325.40 214.50 C 328.03 213.70 327.96 210.64 328.34 208.43 C 321.84 205.62 314.87 203.91 308.62 200.53 C 312.48 199.41 316.33 198.16 320.03 196.55 C 319.80 198.80 319.60 201.04 319.40 203.29 C 322.68 203.20 326.28 203.90 329.30 202.29 C 331.96 200.34 333.00 197.03 334.49 194.23 C 338.09 195.06 341.68 195.92 345.25 196.91 C 342.43 198.72 339.25 199.81 336.37 201.47 C 335.10 202.84 334.29 204.55 333.33 206.13 C 335.66 206.96 338.00 207.80 340.33 208.65 C 340.29 210.10 340.26 211.55 340.23 213.01 C 344.03 214.41 348.52 214.55 351.69 211.66 C 354.19 210.11 352.72 207.03 352.51 204.74 C 355.72 204.33 358.82 203.32 361.47 201.42 C 365.20 198.76 370.03 199.76 374.31 199.65 C 371.87 203.61 366.98 204.17 363.05 205.89 C 364.55 207.01 366.08 208.24 367.99 208.56 C 372.79 209.64 377.64 211.11 382.62 210.53 C 384.14 213.13 385.03 216.92 388.34 217.75 C 390.78 217.90 393.12 216.94 395.45 216.32 C 395.81 218.60 396.20 220.87 396.59 223.14 C 401.00 222.70 404.29 219.45 408.35 218.01 C 408.48 217.57 408.73 216.70 408.86 216.26 C 406.65 214.92 404.22 213.81 402.44 211.89 C 403.15 209.95 404.26 208.14 404.73 206.12 C 404.60 203.65 403.53 201.37 402.70 199.08 C 400.99 202.43 399.74 206.27 396.79 208.78 C 394.80 210.52 392.06 209.36 389.76 209.21 C 392.71 206.80 397.01 205.06 397.96 201.00 C 396.61 196.68 391.72 197.56 388.28 197.94 C 387.49 196.13 386.72 194.32 385.95 192.51 C 384.33 192.24 382.72 191.96 381.11 191.68 C 381.81 190.54 382.51 189.39 383.21 188.24 C 389.02 187.98 394.85 188.13 400.65 188.57 C 400.15 185.56 400.51 182.05 398.64 179.51 C 395.59 177.62 392.27 176.15 389.51 173.81 C 387.29 174.42 385.08 175.07 382.88 175.75 C 383.38 170.45 378.54 166.97 374.31 164.96 C 369.70 164.34 364.79 164.57 360.50 166.51 C 361.18 169.14 361.84 171.78 362.53 174.42 C 359.34 172.04 355.52 170.85 351.61 170.36 C 350.37 168.79 349.17 167.19 347.81 165.72 C 345.12 167.36 343.03 169.74 340.87 171.99 C 341.43 168.96 341.36 165.15 344.34 163.35 C 347.03 161.84 350.29 162.52 353.24 162.40 C 349.62 160.07 345.92 157.85 342.01 156.04 C 338.06 160.79 331.81 161.84 326.26 163.68 M 351.63 224.46 C 348.14 225.62 344.42 225.30 340.86 225.95 C 337.30 226.61 334.14 228.51 330.65 229.37 C 327.55 229.88 324.41 229.13 321.31 229.53 C 318.50 229.95 315.84 231.08 313.01 231.31 C 309.75 230.78 306.80 228.58 303.39 229.02 C 298.79 229.23 294.53 231.23 290.00 231.75 C 285.05 231.50 280.04 228.93 275.13 230.96 C 270.74 232.95 266.39 235.25 261.47 235.61 C 258.99 239.20 258.15 243.48 257.32 247.68 C 255.48 253.43 252.41 258.94 252.26 265.12 C 252.36 267.99 253.50 270.72 253.62 273.59 C 253.15 277.39 249.95 280.21 249.36 283.99 C 248.11 294.64 250.56 305.19 252.47 315.61 C 253.89 322.85 256.77 329.67 259.07 336.65 C 263.13 349.46 266.50 363.11 275.43 373.57 C 286.06 385.83 299.28 395.70 313.40 403.60 C 326.80 411.25 344.72 410.55 357.02 401.01 C 369.24 391.65 379.65 379.96 388.13 367.15 C 393.42 359.31 396.48 350.19 397.77 340.86 C 399.27 329.91 400.59 318.95 402.03 308.00 C 403.03 301.01 402.14 293.98 401.93 286.97 C 401.73 281.65 401.49 276.25 399.91 271.13 C 398.54 265.81 392.25 262.67 393.10 256.65 C 393.49 255.42 394.94 254.12 394.01 252.82 C 390.09 245.62 386.64 238.18 382.90 230.89 C 381.46 228.23 379.68 225.36 376.67 224.31 C 373.18 223.10 369.69 221.74 366.04 221.09 C 361.03 220.93 356.31 222.95 351.63 224.46 M 406.38 284.55 C 406.43 291.80 406.60 299.07 406.04 306.31 C 405.09 315.64 403.94 324.95 403.15 334.29 C 406.50 332.84 409.77 330.99 412.08 328.09 C 420.43 318.29 424.57 304.83 422.85 292.05 C 422.16 287.84 420.80 283.02 416.88 280.72 C 412.96 280.23 409.55 282.61 406.38 284.55 M 232.44 301.44 C 229.64 310.49 231.95 320.51 236.21 328.75 C 240.89 337.45 248.02 346.01 258.10 348.26 C 256.41 341.13 253.68 334.30 251.71 327.24 C 250.36 323.24 249.64 319.00 247.77 315.20 C 247.51 312.33 247.15 309.47 246.82 306.61 C 245.78 303.87 245.83 299.59 242.41 298.65 C 239.00 297.68 233.75 297.16 232.44 301.44 Z" />
</g>
<g id="#1b1b1dff">
<path fill="#1b1b1d" opacity="1.00" d=" M 326.26 163.68 C 331.81 161.84 338.06 160.79 342.01 156.04 C 345.92 157.85 349.62 160.07 353.24 162.40 C 350.29 162.52 347.03 161.84 344.34 163.35 C 341.36 165.15 341.43 168.96 340.87 171.99 C 343.03 169.74 345.12 167.36 347.81 165.72 C 349.17 167.19 350.37 168.79 351.61 170.36 C 355.52 170.85 359.34 172.04 362.53 174.42 C 361.84 171.78 361.18 169.14 360.50 166.51 C 364.79 164.57 369.70 164.34 374.31 164.96 C 378.54 166.97 383.38 170.45 382.88 175.75 C 385.08 175.07 387.29 174.42 389.51 173.81 C 392.27 176.15 395.59 177.62 398.64 179.51 C 400.51 182.05 400.15 185.56 400.65 188.57 C 394.85 188.13 389.02 187.98 383.21 188.24 C 382.51 189.39 381.81 190.54 381.11 191.68 C 382.72 191.96 384.33 192.24 385.95 192.51 C 383.49 193.10 381.03 193.70 378.59 194.33 C 381.65 195.90 384.77 197.66 388.28 197.94 C 391.72 197.56 396.61 196.68 397.96 201.00 C 397.01 205.06 392.71 206.80 389.76 209.21 C 392.06 209.36 394.80 210.52 396.79 208.78 C 399.74 206.27 400.99 202.43 402.70 199.08 C 403.53 201.37 404.60 203.65 404.73 206.12 C 404.26 208.14 403.15 209.95 402.44 211.89 C 404.22 213.81 406.65 214.92 408.86 216.26 C 408.73 216.70 408.48 217.57 408.35 218.01 C 404.29 219.45 401.00 222.70 396.59 223.14 C 396.20 220.87 395.81 218.60 395.45 216.32 C 393.12 216.94 390.78 217.90 388.34 217.75 C 385.03 216.92 384.14 213.13 382.62 210.53 C 377.64 211.11 372.79 209.64 367.99 208.56 C 366.08 208.24 364.55 207.01 363.05 205.89 C 366.98 204.17 371.87 203.61 374.31 199.65 C 370.03 199.76 365.20 198.76 361.47 201.42 C 358.82 203.32 355.72 204.33 352.51 204.74 C 352.72 207.03 354.19 210.11 351.69 211.66 C 348.52 214.55 344.03 214.41 340.23 213.01 C 340.26 211.55 340.29 210.10 340.33 208.65 C 338.00 207.80 335.66 206.96 333.33 206.13 C 334.29 204.55 335.10 202.84 336.37 201.47 C 339.25 199.81 342.43 198.72 345.25 196.91 C 341.68 195.92 338.09 195.06 334.49 194.23 C 333.00 197.03 331.96 200.34 329.30 202.29 C 326.28 203.90 322.68 203.20 319.40 203.29 C 319.60 201.04 319.80 198.80 320.03 196.55 C 316.33 198.16 312.48 199.41 308.62 200.53 C 314.87 203.91 321.84 205.62 328.34 208.43 C 327.96 210.64 328.03 213.70 325.40 214.50 C 320.74 215.74 315.94 216.47 311.46 218.39 C 308.21 220.02 305.58 216.91 303.21 215.15 C 304.08 213.36 304.94 211.57 305.80 209.78 C 302.65 209.53 299.49 209.38 296.33 209.26 C 297.02 212.33 299.19 216.66 295.58 218.75 C 292.33 219.79 289.22 217.33 286.26 216.27 C 284.02 217.72 281.95 220.13 279.13 220.14 C 272.76 216.80 267.36 211.04 259.97 210.12 C 261.52 214.93 262.48 219.94 262.06 225.02 C 255.96 222.14 249.04 223.41 242.75 221.30 C 243.35 222.96 243.52 224.90 244.66 226.31 C 247.25 227.97 250.51 227.93 253.44 228.60 C 252.53 229.85 252.24 232.03 250.39 232.17 C 248.54 232.55 246.64 232.56 244.76 232.68 C 243.92 237.08 248.04 239.71 250.56 242.62 C 245.50 243.55 240.14 241.96 236.13 238.83 C 233.48 236.12 236.39 232.64 237.43 229.87 C 235.98 227.15 232.38 223.99 234.79 220.83 C 236.72 218.23 239.38 214.64 243.08 215.41 C 246.95 216.07 250.87 216.39 254.80 216.20 C 253.19 214.94 251.74 213.27 249.72 212.68 C 247.98 212.62 246.33 213.32 244.72 213.90 C 245.72 210.73 247.25 207.76 249.16 205.05 C 247.58 204.80 246.00 204.48 244.40 204.46 C 240.28 207.80 237.31 212.43 232.67 215.21 C 232.58 210.06 232.32 204.77 229.98 200.07 C 233.81 196.38 237.97 192.61 239.08 187.15 C 239.62 183.67 243.66 183.43 246.22 182.03 C 250.13 180.56 252.59 176.94 256.11 174.87 C 258.73 174.62 259.54 177.82 260.70 179.59 C 258.86 181.45 256.76 183.17 255.52 185.52 C 254.98 187.31 255.52 189.22 255.60 191.04 C 259.18 186.98 263.61 183.81 267.41 179.97 C 268.15 180.29 268.90 180.61 269.66 180.93 C 269.30 182.78 268.96 184.63 268.64 186.49 C 270.27 185.32 272.65 184.61 273.23 182.46 C 273.96 180.32 274.32 178.08 274.78 175.88 C 277.49 176.05 280.27 177.36 281.08 180.16 C 281.01 182.77 280.13 185.27 279.39 187.75 C 281.22 187.22 283.04 186.49 284.97 186.42 C 287.23 186.80 289.26 187.94 291.33 188.86 C 293.02 186.42 294.39 183.54 296.95 181.88 C 299.08 181.16 301.36 181.14 303.58 180.86 C 302.34 179.51 301.05 177.78 298.99 177.96 C 294.04 177.64 290.42 183.55 285.45 181.84 C 283.91 179.48 283.17 176.69 281.59 174.37 C 279.54 172.04 276.76 170.54 274.30 168.70 C 279.21 165.62 285.05 166.93 290.42 166.00 C 293.74 164.01 296.74 161.13 300.96 161.66 C 300.85 165.09 300.76 168.53 300.72 171.97 C 302.77 169.97 304.68 167.69 307.25 166.34 C 310.05 166.69 312.42 168.39 314.86 169.69 C 316.34 167.93 317.84 166.18 319.34 164.44 C 316.27 163.67 313.18 162.97 310.07 162.39 C 310.11 160.75 309.20 157.19 311.96 157.60 C 315.49 158.02 319.01 157.68 322.54 157.41 C 324.08 159.30 325.10 161.54 326.26 163.68 M 287.70 173.66 C 291.77 173.01 295.77 171.99 299.69 170.72 C 297.60 169.85 295.49 168.32 293.12 168.81 C 290.44 169.08 289.22 171.81 287.70 173.66 M 321.63 174.49 C 319.23 173.60 316.87 172.28 314.25 172.27 C 311.33 172.83 310.90 176.35 309.65 178.56 C 311.40 177.38 313.10 176.09 315.00 175.16 C 319.18 177.29 322.99 180.37 327.85 180.83 C 328.07 180.52 328.51 179.90 328.73 179.59 C 326.58 178.34 324.43 177.09 322.31 175.80 C 324.01 175.15 325.68 173.65 327.61 174.08 C 329.47 176.03 330.76 178.48 332.79 180.28 C 334.71 181.37 336.96 180.36 339.00 180.17 C 334.71 178.55 332.51 174.52 329.52 171.39 C 326.43 170.00 323.94 172.92 321.63 174.49 M 340.60 177.26 C 342.92 176.95 345.27 176.19 347.62 176.59 C 349.94 177.34 352.00 178.68 354.13 179.81 C 352.76 176.72 350.99 172.80 346.99 172.86 C 343.90 172.29 342.25 175.23 340.60 177.26 M 368.13 172.55 C 367.29 175.15 366.45 177.75 365.58 180.34 C 363.18 180.97 360.64 181.29 358.46 182.51 C 357.38 183.78 356.61 185.27 355.76 186.69 C 358.37 185.65 360.89 183.89 363.78 183.87 C 365.56 185.00 366.99 186.59 368.49 188.07 C 370.71 186.99 372.93 185.90 375.17 184.84 C 372.09 184.15 369.12 183.06 366.46 181.36 C 367.44 179.60 368.42 177.84 369.41 176.08 C 372.99 178.58 376.76 180.85 380.92 182.27 C 377.64 177.96 373.89 173.26 368.13 172.55 M 262.52 190.44 C 259.88 191.85 259.40 195.11 258.29 197.61 C 255.10 197.46 251.91 197.47 248.73 197.46 C 251.84 198.49 254.66 200.21 257.66 201.53 C 254.85 202.89 252.35 204.76 250.33 207.13 C 253.51 206.41 256.81 206.40 259.91 207.51 C 260.79 204.66 261.14 201.45 263.06 199.07 C 265.25 197.97 267.72 197.65 270.09 197.09 C 267.69 196.27 265.30 195.38 262.93 194.48 C 264.93 192.98 266.92 191.48 268.87 189.91 C 266.76 189.81 264.45 189.29 262.52 190.44 M 289.40 201.30 C 292.73 201.01 296.05 200.59 299.36 200.10 C 297.89 198.67 296.46 196.45 294.08 197.00 C 291.63 197.02 290.74 199.70 289.40 201.30 Z" />
<path fill="#1b1b1d" opacity="1.00" d=" M 428.23 910.71 C 429.04 909.76 429.86 908.83 430.68 907.90 C 431.04 908.57 431.75 909.92 432.11 910.59 C 430.81 910.60 429.52 910.65 428.23 910.71 Z" />
<path fill="#1b1b1d" opacity="1.00" d=" M 434.43 915.89 C 433.95 914.27 436.32 913.88 437.42 914.27 C 437.55 914.61 437.81 915.30 437.94 915.64 C 436.84 915.89 435.41 916.88 434.43 915.89 Z" />
</g>
<g id="#545455ff">
<path fill="#545455" opacity="1.00" d=" M 287.70 173.66 C 289.22 171.81 290.44 169.08 293.12 168.81 C 295.49 168.32 297.60 169.85 299.69 170.72 C 295.77 171.99 291.77 173.01 287.70 173.66 Z" />
<path fill="#545455" opacity="1.00" d=" M 340.60 177.26 C 342.25 175.23 343.90 172.29 346.99 172.86 C 350.99 172.80 352.76 176.72 354.13 179.81 C 352.00 178.68 349.94 177.34 347.62 176.59 C 345.27 176.19 342.92 176.95 340.60 177.26 Z" />
</g>
<g id="#555556ff">
<path fill="#555556" opacity="1.00" d=" M 321.63 174.49 C 323.94 172.92 326.43 170.00 329.52 171.39 C 332.51 174.52 334.71 178.55 339.00 180.17 C 336.96 180.36 334.71 181.37 332.79 180.28 C 330.76 178.48 329.47 176.03 327.61 174.08 C 325.68 173.65 324.01 175.15 322.31 175.80 C 324.43 177.09 326.58 178.34 328.73 179.59 C 328.51 179.90 328.07 180.52 327.85 180.83 C 322.99 180.37 319.18 177.29 315.00 175.16 C 313.10 176.09 311.40 177.38 309.65 178.56 C 310.90 176.35 311.33 172.83 314.25 172.27 C 316.87 172.28 319.23 173.60 321.63 174.49 Z" />
<path fill="#555556" opacity="1.00" d=" M 378.59 194.33 C 381.03 193.70 383.49 193.10 385.95 192.51 C 386.72 194.32 387.49 196.13 388.28 197.94 C 384.77 197.66 381.65 195.90 378.59 194.33 Z" />
<path fill="#555556" opacity="1.00" d=" M 289.40 201.30 C 290.74 199.70 291.63 197.02 294.08 197.00 C 296.46 196.45 297.89 198.67 299.36 200.10 C 296.05 200.59 292.73 201.01 289.40 201.30 Z" />
<path fill="#555556" opacity="1.00" d=" M 244.72 213.90 C 246.33 213.32 247.98 212.62 249.72 212.68 C 251.74 213.27 253.19 214.94 254.80 216.20 C 250.87 216.39 246.95 216.07 243.08 215.41 C 243.49 215.03 244.31 214.27 244.72 213.90 Z" />
</g>
<g id="#565657ff">
<path fill="#565657" opacity="1.00" d=" M 368.13 172.55 C 373.89 173.26 377.64 177.96 380.92 182.27 C 376.76 180.85 372.99 178.58 369.41 176.08 C 368.42 177.84 367.44 179.60 366.46 181.36 C 369.12 183.06 372.09 184.15 375.17 184.84 C 372.93 185.90 370.71 186.99 368.49 188.07 C 366.99 186.59 365.56 185.00 363.78 183.87 C 360.89 183.89 358.37 185.65 355.76 186.69 C 356.61 185.27 357.38 183.78 358.46 182.51 C 360.64 181.29 363.18 180.97 365.58 180.34 C 366.45 177.75 367.29 175.15 368.13 172.55 Z" />
</g>
<g id="#575758ff">
<path fill="#575758" opacity="1.00" d=" M 262.52 190.44 C 264.45 189.29 266.76 189.81 268.87 189.91 C 266.92 191.48 264.93 192.98 262.93 194.48 C 265.30 195.38 267.69 196.27 270.09 197.09 C 267.72 197.65 265.25 197.97 263.06 199.07 C 261.14 201.45 260.79 204.66 259.91 207.51 C 256.81 206.40 253.51 206.41 250.33 207.13 C 252.35 204.76 254.85 202.89 257.66 201.53 C 254.66 200.21 251.84 198.49 248.73 197.46 C 251.91 197.47 255.10 197.46 258.29 197.61 C 259.40 195.11 259.88 191.85 262.52 190.44 Z" />
</g>
<g id="#8e614bff">
<path fill="#8e614b" opacity="1.00" d=" M 351.63 224.46 C 356.31 222.95 361.03 220.93 366.04 221.09 C 369.69 221.74 373.18 223.10 376.67 224.31 C 379.68 225.36 381.46 228.23 382.90 230.89 C 386.64 238.18 390.09 245.62 394.01 252.82 C 394.94 254.12 393.49 255.42 393.10 256.65 C 392.25 262.67 398.54 265.81 399.91 271.13 C 401.49 276.25 401.73 281.65 401.93 286.97 C 402.14 293.98 403.03 301.01 402.03 308.00 C 400.59 318.95 399.27 329.91 397.77 340.86 C 396.48 350.19 393.42 359.31 388.13 367.15 C 379.65 379.96 369.24 391.65 357.02 401.01 C 344.72 410.55 326.80 411.25 313.40 403.60 C 299.28 395.70 286.06 385.83 275.43 373.57 C 266.50 363.11 263.13 349.46 259.07 336.65 C 256.77 329.67 253.89 322.85 252.47 315.61 C 250.56 305.19 248.11 294.64 249.36 283.99 C 249.95 280.21 253.15 277.39 253.62 273.59 C 253.50 270.72 252.36 267.99 252.26 265.12 C 252.41 258.94 255.48 253.43 257.32 247.68 C 258.15 243.48 258.99 239.20 261.47 235.61 C 266.39 235.25 270.74 232.95 275.13 230.96 C 280.04 228.93 285.05 231.50 290.00 231.75 C 294.53 231.23 298.79 229.23 303.39 229.02 C 306.80 228.58 309.75 230.78 313.01 231.31 C 315.84 231.08 318.50 229.95 321.31 229.53 C 324.41 229.13 327.55 229.88 330.65 229.37 C 334.14 228.51 337.30 226.61 340.86 225.95 C 344.42 225.30 348.14 225.62 351.63 224.46 M 345.99 274.98 C 343.67 276.18 341.05 277.24 339.52 279.46 C 339.13 281.32 339.13 283.24 339.01 285.13 C 351.73 280.79 364.29 274.97 377.93 274.29 C 383.43 273.92 388.85 275.15 394.24 276.08 C 390.50 269.87 383.65 264.47 375.99 265.85 C 365.65 267.53 355.50 270.57 345.99 274.98 M 255.83 289.75 C 261.08 287.40 266.38 284.81 272.21 284.31 C 285.63 282.48 299.00 285.47 312.16 287.78 C 311.46 285.43 311.53 282.27 309.03 281.01 C 305.18 278.86 300.72 278.30 296.46 277.47 C 287.73 276.06 278.82 274.94 269.98 275.89 C 262.79 276.87 258.24 283.45 255.83 289.75 M 352.58 291.62 C 348.21 294.95 343.59 299.47 343.50 305.35 C 343.85 306.39 344.21 307.44 344.56 308.50 C 354.51 312.66 365.95 315.07 376.44 311.50 C 382.26 309.61 388.09 305.50 389.49 299.21 C 389.84 297.21 390.14 295.21 390.47 293.21 C 390.93 294.50 391.36 295.80 391.81 297.10 C 392.21 294.89 392.69 292.66 392.70 290.40 C 390.19 287.97 386.59 287.31 383.29 286.65 C 372.94 284.71 361.62 285.98 352.58 291.62 M 281.03 295.01 C 275.20 296.13 269.19 297.77 264.35 301.35 C 261.11 303.83 264.28 307.84 266.12 310.14 C 266.15 309.55 266.20 308.37 266.23 307.79 C 267.75 311.81 269.91 316.04 273.91 318.09 C 279.37 321.22 285.92 321.07 291.99 320.62 C 299.95 319.93 306.99 315.78 313.65 311.69 C 313.49 310.40 313.34 309.12 313.20 307.85 C 313.67 308.16 314.62 308.78 315.09 309.09 C 313.11 305.23 310.48 301.62 306.83 299.20 C 299.41 293.94 289.71 293.70 281.03 295.01 M 342.89 338.81 C 338.91 340.50 335.12 342.79 330.89 343.75 C 325.66 343.31 320.73 341.23 315.56 340.38 C 314.21 338.88 312.84 337.40 311.42 335.98 C 311.58 336.39 311.92 337.23 312.09 337.65 C 311.05 340.64 311.04 344.98 315.04 345.51 C 317.99 350.75 324.45 352.16 330.00 352.35 C 336.75 352.40 344.26 349.22 346.92 342.61 C 350.33 341.57 349.49 337.66 349.23 334.96 C 349.10 334.33 348.85 333.08 348.72 332.45 C 347.12 334.84 345.81 337.79 342.89 338.81 M 322.82 337.69 C 324.15 338.85 325.46 340.03 326.74 341.26 C 326.16 339.50 325.61 337.73 325.10 335.96 C 324.53 336.39 323.39 337.26 322.82 337.69 M 350.70 360.15 C 346.44 359.89 342.25 361.07 338.01 361.22 C 327.90 361.71 317.76 360.98 307.65 361.63 C 304.60 360.76 301.54 359.91 298.42 359.29 C 300.17 362.22 302.49 364.74 304.99 367.04 C 307.92 369.77 310.17 373.14 313.18 375.78 C 316.02 379.58 319.35 383.05 323.11 385.95 C 324.51 387.17 325.84 388.61 327.66 389.21 C 334.05 391.04 342.14 390.12 346.05 384.11 C 349.05 381.59 351.01 378.12 352.74 374.66 C 356.56 370.98 358.62 365.97 361.72 361.73 C 363.70 358.84 366.74 356.33 366.82 352.55 C 361.63 355.47 356.29 358.09 350.70 360.15 Z" />
<path fill="#8e614b" opacity="1.00" d=" M 456.36 356.51 C 458.86 359.26 460.96 362.39 462.33 365.86 C 465.26 373.21 468.40 380.48 471.43 387.79 C 478.20 388.21 484.98 388.65 491.65 389.97 C 491.69 387.09 492.02 384.15 493.37 381.56 C 496.29 375.70 498.82 369.63 502.40 364.13 C 502.22 372.75 497.74 380.55 497.43 389.15 C 496.87 397.40 498.72 405.75 497.01 413.92 C 496.03 419.43 489.81 423.04 490.83 429.03 C 491.94 440.33 493.59 451.58 494.99 462.85 C 489.19 464.54 482.94 465.84 476.98 464.16 C 474.27 463.45 472.27 461.39 470.23 459.61 C 473.52 448.47 477.04 437.36 479.40 425.97 C 478.51 425.90 476.74 425.76 475.85 425.70 C 475.33 427.09 474.82 428.49 474.31 429.90 C 473.31 428.53 472.29 427.17 471.27 425.82 C 471.92 425.93 473.24 426.13 473.89 426.23 C 469.62 423.95 465.08 421.90 461.65 418.37 C 457.51 414.21 454.69 408.66 449.49 405.64 C 445.31 403.28 440.72 401.77 436.46 399.56 C 439.44 398.43 442.61 396.91 445.86 397.90 C 451.00 398.83 456.36 402.02 461.57 399.77 C 464.30 398.78 463.96 395.41 464.25 393.07 C 464.75 380.31 456.88 369.14 456.36 356.51 M 478.41 403.70 C 480.43 407.90 482.58 412.05 484.92 416.08 C 484.58 413.81 484.48 411.46 483.59 409.32 C 482.40 407.02 480.27 405.42 478.41 403.70 Z" />
<path fill="#8e614b" opacity="1.00" d=" M 319.16 411.12 C 329.22 412.93 339.54 412.80 349.48 410.26 C 349.96 413.57 350.47 416.89 351.00 420.21 C 346.39 424.57 341.37 429.39 334.88 430.50 C 327.75 430.69 322.44 425.19 317.34 421.00 C 317.98 417.71 318.58 414.41 319.16 411.12 Z" />
<path fill="#8e614b" opacity="1.00" d=" M 225.66 600.78 C 229.88 600.23 234.17 599.27 238.43 599.95 C 242.42 600.76 246.07 602.67 249.67 604.50 C 245.69 615.63 242.19 626.93 238.11 638.02 C 241.73 642.85 245.56 647.70 247.58 653.46 C 249.80 659.61 249.88 666.24 251.40 672.55 C 252.52 677.27 254.80 681.58 256.81 685.95 C 254.44 685.32 251.78 684.91 250.05 682.98 C 245.68 678.55 243.42 672.62 241.19 666.94 C 240.39 673.61 239.43 680.31 239.64 687.06 C 239.75 694.10 244.41 699.82 246.29 706.39 C 240.20 703.39 236.51 697.22 235.20 690.74 C 234.19 685.73 233.90 680.61 233.02 675.58 C 231.65 683.37 231.20 691.91 234.92 699.15 C 237.16 703.29 239.00 707.66 239.94 712.29 C 234.17 705.83 229.60 697.86 228.77 689.11 C 228.30 684.24 227.79 679.36 226.64 674.60 C 225.55 682.99 226.31 691.43 226.97 699.82 C 221.23 692.28 223.34 682.31 220.63 673.72 C 220.19 677.90 219.83 682.09 219.41 686.27 C 216.37 674.58 217.76 662.10 221.78 650.83 C 223.71 645.20 228.39 640.33 227.84 634.03 C 227.22 622.94 225.80 611.90 225.66 600.78 Z" />
</g>
<g id="#010101ff">
<path fill="#010101" opacity="1.00" d=" M 345.99 274.98 C 355.50 270.57 365.65 267.53 375.99 265.85 C 383.65 264.47 390.50 269.87 394.24 276.08 C 388.85 275.15 383.43 273.92 377.93 274.29 C 364.29 274.97 351.73 280.79 339.01 285.13 C 339.13 283.24 339.13 281.32 339.52 279.46 C 341.05 277.24 343.67 276.18 345.99 274.98 Z" />
</g>
<g id="#010100ff">
<path fill="#010100" opacity="1.00" d=" M 255.83 289.75 C 258.24 283.45 262.79 276.87 269.98 275.89 C 278.82 274.94 287.73 276.06 296.46 277.47 C 300.72 278.30 305.18 278.86 309.03 281.01 C 311.53 282.27 311.46 285.43 312.16 287.78 C 299.00 285.47 285.63 282.48 272.21 284.31 C 266.38 284.81 261.08 287.40 255.83 289.75 Z" />
</g>
<g id="#845743ff">
<path fill="#845743" opacity="1.00" d=" M 406.38 284.55 C 409.55 282.61 412.96 280.23 416.88 280.72 C 420.80 283.02 422.16 287.84 422.85 292.05 C 424.57 304.83 420.43 318.29 412.08 328.09 C 409.77 330.99 406.50 332.84 403.15 334.29 C 403.94 324.95 405.09 315.64 406.04 306.31 C 406.36 299.09 411.77 294.07 416.15 288.96 C 413.04 289.79 409.94 290.68 406.87 291.64 C 406.71 289.28 406.54 286.91 406.38 284.55 Z" />
<path fill="#845743" opacity="1.00" d=" M 232.44 301.44 C 233.75 297.16 239.00 297.68 242.41 298.65 C 245.83 299.59 245.78 303.87 246.82 306.61 C 243.50 306.57 240.18 306.41 236.86 306.28 C 240.51 309.23 244.31 312.01 247.77 315.20 C 249.64 319.00 250.36 323.24 251.71 327.24 C 253.68 334.30 256.41 341.13 258.10 348.26 C 248.02 346.01 240.89 337.45 236.21 328.75 C 231.95 320.51 229.64 310.49 232.44 301.44 Z" />
</g>
<g id="#523227ff">
<path fill="#523227" opacity="1.00" d=" M 406.04 306.31 C 406.60 299.07 406.43 291.80 406.38 284.55 C 406.54 286.91 406.71 289.28 406.87 291.64 C 409.94 290.68 413.04 289.79 416.15 288.96 C 411.77 294.07 406.36 299.09 406.04 306.31 Z" />
</g>
<g id="#030202ff">
<path fill="#030202" opacity="1.00" d=" M 352.58 291.62 C 361.62 285.98 372.94 284.71 383.29 286.65 C 386.59 287.31 390.19 287.97 392.70 290.40 C 392.69 292.66 392.21 294.89 391.81 297.10 C 391.36 295.80 390.93 294.50 390.47 293.21 C 390.14 295.21 389.84 297.21 389.49 299.21 C 389.69 296.95 389.76 294.68 389.84 292.42 C 386.37 291.63 382.90 290.91 379.43 290.18 C 379.55 294.65 380.52 299.44 378.60 303.66 C 375.06 310.69 365.22 313.90 358.48 309.51 C 353.92 306.94 352.49 301.57 351.10 296.92 C 348.50 299.67 346.00 302.52 343.50 305.35 C 343.59 299.47 348.21 294.95 352.58 291.62 M 358.58 292.52 C 358.42 293.79 358.27 295.06 358.12 296.34 C 357.56 299.34 356.21 302.94 358.34 305.65 C 362.61 310.38 371.57 308.88 374.20 303.09 C 375.33 300.66 373.70 298.20 372.92 295.93 C 371.99 297.98 371.22 300.12 370.02 302.03 C 368.70 304.36 365.51 304.04 363.26 303.73 C 360.63 303.41 359.90 300.53 358.99 298.49 C 361.19 296.81 362.99 294.69 364.35 292.28 C 362.42 292.32 360.50 292.40 358.58 292.52 Z" />
</g>
<g id="#fcfcfcff">
<path fill="#fcfcfc" opacity="1.00" d=" M 379.43 290.18 C 382.90 290.91 386.37 291.63 389.84 292.42 C 389.76 294.68 389.69 296.95 389.49 299.21 C 388.09 305.50 382.26 309.61 376.44 311.50 C 365.95 315.07 354.51 312.66 344.56 308.50 C 344.21 307.44 343.85 306.39 343.50 305.35 C 346.00 302.52 348.50 299.67 351.10 296.92 C 352.49 301.57 353.92 306.94 358.48 309.51 C 365.22 313.90 375.06 310.69 378.60 303.66 C 380.52 299.44 379.55 294.65 379.43 290.18 Z" />
<path fill="#fcfcfc" opacity="1.00" d=" M 266.28 304.31 C 269.63 302.93 272.98 301.55 276.32 300.16 C 276.53 305.16 276.74 310.75 280.42 314.58 C 284.98 320.02 293.69 320.49 299.17 316.17 C 303.68 313.10 304.64 307.42 305.83 302.50 C 308.27 304.30 310.69 306.14 313.20 307.85 C 313.34 309.12 313.49 310.40 313.65 311.69 C 306.99 315.78 299.95 319.93 291.99 320.62 C 285.92 321.07 279.37 321.22 273.91 318.09 C 269.91 316.04 267.75 311.81 266.23 307.79 C 266.24 306.62 266.25 305.47 266.28 304.31 Z" />
</g>
<g id="#f9f9f9ff">
<path fill="#f9f9f9" opacity="1.00" d=" M 358.58 292.52 C 360.50 292.40 362.42 292.32 364.35 292.28 C 362.99 294.69 361.19 296.81 358.99 298.49 C 358.78 297.95 358.34 296.88 358.12 296.34 C 358.27 295.06 358.42 293.79 358.58 292.52 Z" />
</g>
<g id="#030302ff">
<path fill="#030302" opacity="1.00" d=" M 281.03 295.01 C 289.71 293.70 299.41 293.94 306.83 299.20 C 310.48 301.62 313.11 305.23 315.09 309.09 C 314.62 308.78 313.67 308.16 313.20 307.85 C 310.69 306.14 308.27 304.30 305.83 302.50 C 304.64 307.42 303.68 313.10 299.17 316.17 C 293.69 320.49 284.98 320.02 280.42 314.58 C 276.74 310.75 276.53 305.16 276.32 300.16 C 272.98 301.55 269.63 302.93 266.28 304.31 C 266.25 305.47 266.24 306.62 266.23 307.79 C 266.20 308.37 266.15 309.55 266.12 310.14 C 264.28 307.84 261.11 303.83 264.35 301.35 C 269.19 297.77 275.20 296.13 281.03 295.01 M 283.61 299.66 C 282.06 301.43 283.23 303.57 283.86 305.43 C 286.01 303.51 287.88 301.28 289.27 298.74 C 287.37 298.85 285.29 298.55 283.61 299.66 M 297.93 303.89 C 296.23 306.80 295.17 311.47 290.97 311.43 C 286.98 312.08 284.47 308.38 281.82 306.10 C 282.31 308.92 281.84 312.61 284.68 314.32 C 289.01 317.17 295.95 316.17 298.67 311.54 C 300.25 309.08 298.73 306.31 297.93 303.89 Z" />
</g>
<g id="#625c5aff">
<path fill="#625c5a" opacity="1.00" d=" M 372.92 295.93 C 373.70 298.20 375.33 300.66 374.20 303.09 C 371.57 308.88 362.61 310.38 358.34 305.65 C 356.21 302.94 357.56 299.34 358.12 296.34 C 358.34 296.88 358.78 297.95 358.99 298.49 C 359.90 300.53 360.63 303.41 363.26 303.73 C 365.51 304.04 368.70 304.36 370.02 302.03 C 371.22 300.12 371.99 297.98 372.92 295.93 Z" />
</g>
<g id="#f8f8f8ff">
<path fill="#f8f8f8" opacity="1.00" d=" M 283.61 299.66 C 285.29 298.55 287.37 298.85 289.27 298.74 C 287.88 301.28 286.01 303.51 283.86 305.43 C 283.23 303.57 282.06 301.43 283.61 299.66 Z" />
</g>
<g id="#635d5bff">
<path fill="#635d5b" opacity="1.00" d=" M 297.93 303.89 C 298.73 306.31 300.25 309.08 298.67 311.54 C 295.95 316.17 289.01 317.17 284.68 314.32 C 281.84 312.61 282.31 308.92 281.82 306.10 C 284.47 308.38 286.98 312.08 290.97 311.43 C 295.17 311.47 296.23 306.80 297.93 303.89 Z" />
</g>
<g id="#523328ff">
<path fill="#523328" opacity="1.00" d=" M 236.86 306.28 C 240.18 306.41 243.50 306.57 246.82 306.61 C 247.15 309.47 247.51 312.33 247.77 315.20 C 244.31 312.01 240.51 309.23 236.86 306.28 Z" />
</g>
<g id="#744838ff">
<path fill="#744838" opacity="1.00" d=" M 342.89 338.81 C 345.81 337.79 347.12 334.84 348.72 332.45 C 348.85 333.08 349.10 334.33 349.23 334.96 C 346.78 340.27 341.26 342.86 336.29 345.27 C 330.20 348.50 323.27 345.58 317.28 343.58 C 314.45 342.83 313.06 340.16 312.09 337.65 C 311.92 337.23 311.58 336.39 311.42 335.98 C 312.84 337.40 314.21 338.88 315.56 340.38 C 320.73 341.23 325.66 343.31 330.89 343.75 C 335.12 342.79 338.91 340.50 342.89 338.81 Z" />
</g>
<g id="#45281fff">
<path fill="#45281f" opacity="1.00" d=" M 336.29 345.27 C 341.26 342.86 346.78 340.27 349.23 334.96 C 349.49 337.66 350.33 341.57 346.92 342.61 C 342.59 344.58 338.59 347.17 334.32 349.23 C 331.40 350.82 328.12 349.62 325.23 348.67 C 321.87 347.49 318.46 346.49 315.04 345.51 C 311.04 344.98 311.05 340.64 312.09 337.65 C 313.06 340.16 314.45 342.83 317.28 343.58 C 323.27 345.58 330.20 348.50 336.29 345.27 Z" />
</g>
<g id="#e2e2e2ff">
<path fill="#e2e2e2" opacity="1.00" d=" M 322.82 337.69 C 323.39 337.26 324.53 336.39 325.10 335.96 C 325.61 337.73 326.16 339.50 326.74 341.26 C 325.46 340.03 324.15 338.85 322.82 337.69 Z" />
<path fill="#e2e2e2" opacity="1.00" d=" M 458.76 967.60 C 465.54 967.07 471.43 963.41 477.03 959.85 C 476.74 962.26 476.87 965.15 474.82 966.87 C 471.61 969.79 467.44 971.40 463.32 972.54 C 452.51 975.42 440.56 974.52 430.56 969.40 C 431.10 967.36 431.63 965.35 432.17 963.33 C 440.59 966.65 449.66 968.85 458.76 967.60 Z" />
</g>
<g id="#0b0807ff">
<path fill="#0b0807" opacity="1.00" d=" M 470.87 346.10 C 471.38 342.59 476.24 340.19 478.78 343.24 C 482.92 348.81 481.52 356.24 481.72 362.73 C 481.54 367.92 481.21 373.11 480.71 378.28 C 479.88 370.21 479.87 362.09 479.17 354.01 C 478.97 350.37 477.17 347.15 475.11 344.25 C 473.74 349.38 473.26 354.70 473.54 359.99 C 473.95 368.68 474.16 377.38 473.79 386.07 C 478.88 386.33 483.96 386.62 489.05 386.93 C 489.72 377.94 490.34 368.94 491.33 359.98 C 491.84 356.00 491.35 351.98 490.25 348.13 C 487.05 354.96 486.73 362.60 486.63 370.01 C 486.46 374.64 486.77 379.66 484.20 383.75 C 484.57 373.47 484.03 363.15 485.05 352.91 C 485.45 350.40 485.48 347.35 487.68 345.66 C 489.22 345.04 490.95 345.05 492.57 345.36 C 495.01 347.44 495.34 350.96 495.23 353.97 C 494.60 363.12 493.10 372.17 491.48 381.19 C 493.24 377.24 494.88 373.25 496.22 369.14 C 497.20 366.37 498.01 363.26 500.45 361.38 C 502.22 361.19 503.97 361.67 505.71 361.98 C 506.08 370.14 501.35 377.21 500.18 385.10 C 497.87 394.43 502.25 404.03 499.36 413.29 C 498.36 417.62 494.84 421.29 495.44 425.94 C 496.03 435.23 497.41 444.46 498.28 453.72 C 498.28 456.46 498.19 459.21 498.12 461.97 C 497.07 462.26 496.02 462.55 494.99 462.85 C 493.59 451.58 491.94 440.33 490.83 429.03 C 489.81 423.04 496.03 419.43 497.01 413.92 C 498.72 405.75 496.87 397.40 497.43 389.15 C 497.74 380.55 502.22 372.75 502.40 364.13 C 498.82 369.63 496.29 375.70 493.37 381.56 C 492.02 384.15 491.69 387.09 491.65 389.97 C 484.98 388.65 478.20 388.21 471.43 387.79 C 468.40 380.48 465.26 373.21 462.33 365.86 C 460.96 362.39 458.86 359.26 456.36 356.51 C 456.88 369.14 464.75 380.31 464.25 393.07 C 463.96 395.41 464.30 398.78 461.57 399.77 C 456.36 402.02 451.00 398.83 445.86 397.90 C 442.61 396.91 439.44 398.43 436.46 399.56 C 440.72 401.77 445.31 403.28 449.49 405.64 C 454.69 408.66 457.51 414.21 461.65 418.37 C 465.08 421.90 469.62 423.95 473.89 426.23 C 473.24 426.13 471.92 425.93 471.27 425.82 C 462.61 424.71 457.25 417.15 451.72 411.26 C 448.03 407.17 442.44 406.25 437.54 404.42 C 434.98 403.60 432.79 400.92 433.74 398.14 C 435.09 395.46 438.12 394.19 441.00 394.21 C 448.01 393.36 453.90 398.65 460.94 397.87 C 461.47 393.88 462.05 389.75 460.97 385.79 C 458.59 376.74 454.57 368.17 452.66 358.99 C 451.87 356.00 454.90 352.79 457.95 353.66 C 460.94 354.62 462.33 357.77 463.54 360.41 C 466.78 368.15 468.80 376.34 472.04 384.08 C 473.44 371.41 468.86 358.78 470.87 346.10 Z" />
<path fill="#0b0807" opacity="1.00" d=" M 478.41 403.70 C 480.27 405.42 482.40 407.02 483.59 409.32 C 484.48 411.46 484.58 413.81 484.92 416.08 C 482.58 412.05 480.43 407.90 478.41 403.70 Z" />
</g>
<g id="#764839ff">
<path fill="#764839" opacity="1.00" d=" M 334.32 349.23 C 338.59 347.17 342.59 344.58 346.92 342.61 C 344.26 349.22 336.75 352.40 330.00 352.35 C 324.45 352.16 317.99 350.75 315.04 345.51 C 318.46 346.49 321.87 347.49 325.23 348.67 C 328.12 349.62 331.40 350.82 334.32 349.23 Z" />
</g>
<g id="#8b5f49ff">
<path fill="#8b5f49" opacity="1.00" d=" M 475.11 344.25 C 477.17 347.15 478.97 350.37 479.17 354.01 C 479.87 362.09 479.88 370.21 480.71 378.28 C 481.21 373.11 481.54 367.92 481.72 362.73 C 482.54 370.00 482.08 377.32 482.62 384.61 C 483.01 384.39 483.80 383.96 484.20 383.75 C 486.77 379.66 486.46 374.64 486.63 370.01 C 486.73 362.60 487.05 354.96 490.25 348.13 C 491.35 351.98 491.84 356.00 491.33 359.98 C 490.34 368.94 489.72 377.94 489.05 386.93 C 483.96 386.62 478.88 386.33 473.79 386.07 C 474.16 377.38 473.95 368.68 473.54 359.99 C 473.26 354.70 473.74 349.38 475.11 344.25 Z" />
</g>
<g id="#471110ff">
<path fill="#471110" opacity="1.00" d=" M 350.70 360.15 C 356.29 358.09 361.63 355.47 366.82 352.55 C 366.74 356.33 363.70 358.84 361.72 361.73 C 358.62 365.97 356.56 370.98 352.74 374.66 C 341.94 384.34 324.55 384.63 313.18 375.78 C 310.17 373.14 307.92 369.77 304.99 367.04 C 302.49 364.74 300.17 362.22 298.42 359.29 C 301.54 359.91 304.60 360.76 307.65 361.63 C 309.62 362.18 311.61 362.69 313.60 363.16 C 312.51 363.61 311.43 364.10 310.37 364.62 C 310.57 365.31 310.85 365.98 311.18 366.63 C 317.64 369.84 325.00 369.72 332.02 369.17 C 339.85 368.56 348.33 367.87 354.57 362.53 C 355.00 362.22 355.85 361.61 356.27 361.30 C 354.42 360.88 352.56 360.46 350.70 360.15 M 319.74 376.80 C 328.82 381.92 340.77 380.25 349.08 374.32 C 339.33 375.48 329.57 376.58 319.74 376.80 Z" />
</g>
<g id="#4d2f27ff">
<path fill="#4d2f27" opacity="1.00" d=" M 338.01 361.22 C 342.25 361.07 346.44 359.89 350.70 360.15 C 352.56 360.46 354.42 360.88 356.27 361.30 C 355.85 361.61 355.00 362.22 354.57 362.53 C 346.93 362.59 339.64 365.45 332.00 365.62 C 325.07 366.18 317.94 364.51 311.18 366.63 C 310.85 365.98 310.57 365.31 310.37 364.62 C 311.43 364.10 312.51 363.61 313.60 363.16 C 311.61 362.69 309.62 362.18 307.65 361.63 C 317.76 360.98 327.90 361.71 338.01 361.22 Z" />
</g>
<g id="#faf9f9ff">
<path fill="#faf9f9" opacity="1.00" d=" M 332.00 365.62 C 339.64 365.45 346.93 362.59 354.57 362.53 C 348.33 367.87 339.85 368.56 332.02 369.17 C 325.00 369.72 317.64 369.84 311.18 366.63 C 317.94 364.51 325.07 366.18 332.00 365.62 Z" />
</g>
<g id="#f8f7f7ff">
<path fill="#f8f7f7" opacity="1.00" d=" M 319.74 376.80 C 329.57 376.58 339.33 375.48 349.08 374.32 C 340.77 380.25 328.82 381.92 319.74 376.80 Z" />
</g>
<g id="#76493aff">
<path fill="#76493a" opacity="1.00" d=" M 313.18 375.78 C 324.55 384.63 341.94 384.34 352.74 374.66 C 351.01 378.12 349.05 381.59 346.05 384.11 C 338.78 386.96 330.73 387.60 323.11 385.95 C 319.35 383.05 316.02 379.58 313.18 375.78 Z" />
</g>
<g id="#3f251cff">
<path fill="#3f251c" opacity="1.00" d=" M 323.11 385.95 C 330.73 387.60 338.78 386.96 346.05 384.11 C 342.14 390.12 334.05 391.04 327.66 389.21 C 325.84 388.61 324.51 387.17 323.11 385.95 Z" />
</g>
<g id="#415160ff">
<path fill="#415160" opacity="1.00" d=" M 312.32 407.17 C 312.82 407.42 313.82 407.91 314.33 408.16 C 314.52 411.80 314.74 415.43 314.97 419.07 C 315.76 419.70 316.55 420.34 317.34 421.00 C 322.44 425.19 327.75 430.69 334.88 430.50 C 341.37 429.39 346.39 424.57 351.00 420.21 C 352.17 418.96 353.29 417.67 354.38 416.37 C 355.31 415.24 356.21 414.11 357.12 412.98 C 356.33 412.70 354.74 412.13 353.94 411.85 C 353.83 410.62 353.76 409.39 353.71 408.16 C 354.00 407.95 354.57 407.52 354.86 407.30 C 361.45 408.16 365.47 413.93 370.81 417.20 C 376.04 420.73 382.42 421.68 388.32 423.63 C 395.64 426.02 403.70 424.13 410.84 427.27 C 424.48 432.85 434.80 443.79 444.68 454.32 C 447.74 457.75 450.96 461.04 454.57 463.89 C 456.37 461.01 457.89 457.83 460.44 455.51 C 462.77 453.75 465.57 452.78 468.16 451.48 C 467.46 454.19 466.56 456.85 465.77 459.54 C 465.68 458.93 465.50 457.70 465.41 457.09 C 460.47 461.61 457.73 467.86 455.99 474.21 C 457.05 476.32 458.70 478.16 460.95 479.04 C 470.07 483.00 480.20 484.15 490.06 483.78 C 495.03 483.50 500.41 482.66 504.30 479.29 C 506.42 477.40 505.55 474.27 505.33 471.83 C 504.60 467.67 502.52 463.94 500.72 460.18 C 491.86 469.63 477.73 470.65 465.60 469.36 C 468.38 468.51 471.17 467.71 473.98 466.93 C 470.93 465.29 467.89 463.41 465.90 460.50 C 467.07 460.49 468.24 460.50 469.42 460.51 C 469.62 460.28 470.03 459.83 470.23 459.61 C 472.27 461.39 474.27 463.45 476.98 464.16 C 482.94 465.84 489.19 464.54 494.99 462.85 C 496.02 462.55 497.07 462.26 498.12 461.97 C 498.19 459.21 498.28 456.46 498.28 453.72 C 501.05 455.07 504.02 456.57 505.52 459.44 C 508.29 464.53 510.27 470.22 510.62 476.04 C 511.17 480.74 506.58 483.41 503.52 486.06 C 503.47 495.64 504.60 505.49 501.77 514.81 C 499.90 520.28 497.23 525.94 492.24 529.22 C 485.59 534.00 476.25 533.74 469.29 529.74 C 453.19 521.07 436.93 512.70 420.74 504.20 C 418.14 502.84 415.41 501.74 412.65 500.72 C 410.92 522.83 409.15 544.93 406.99 566.99 C 405.03 587.70 412.14 607.80 412.69 628.38 C 409.64 630.25 406.76 632.35 403.75 634.27 C 402.35 635.11 400.93 635.94 399.49 636.74 C 385.57 644.13 370.62 649.92 354.85 651.65 C 332.09 654.07 308.63 652.60 286.90 645.03 C 282.77 643.50 278.73 641.75 274.61 640.19 C 273.52 639.76 272.44 639.35 271.36 638.92 C 267.18 637.16 263.50 634.48 259.64 632.14 C 259.88 623.76 261.20 615.46 261.88 607.12 C 259.09 610.59 255.47 613.40 250.93 614.00 C 251.71 611.98 252.68 610.03 253.73 608.15 C 257.84 604.72 260.97 600.26 262.60 595.14 C 262.60 592.83 262.42 590.16 260.30 588.74 C 254.51 584.10 246.95 582.42 239.73 581.61 C 231.57 581.06 222.78 580.29 215.40 584.54 C 215.16 591.16 216.43 597.76 219.67 603.57 C 221.98 599.42 226.34 597.62 230.76 596.67 C 228.43 595.41 226.13 594.12 223.86 592.78 C 232.74 593.20 241.47 596.14 248.72 601.30 C 250.55 602.59 251.86 604.45 252.88 606.42 C 251.83 605.73 250.76 605.10 249.67 604.50 C 246.07 602.67 242.42 600.76 238.43 599.95 C 234.17 599.27 229.88 600.23 225.66 600.78 C 224.45 600.95 223.24 601.13 222.04 601.32 C 221.89 603.64 221.73 605.96 221.63 608.30 C 218.91 607.38 215.78 606.39 214.53 603.52 C 211.48 597.41 210.48 590.25 211.59 583.52 C 212.19 579.28 217.16 578.81 220.37 577.41 C 221.01 571.66 221.60 565.87 223.19 560.29 C 224.60 555.13 227.16 550.34 227.98 545.02 C 230.63 528.31 234.90 511.88 237.14 495.11 C 238.04 480.12 237.73 464.60 243.43 450.41 C 246.64 441.84 253.03 434.03 261.87 430.95 C 272.48 427.38 283.28 424.39 293.88 420.79 C 298.28 419.30 301.27 415.59 304.24 412.23 C 306.31 409.70 309.47 408.58 312.32 407.17 M 310.14 413.90 C 311.47 415.00 312.77 416.14 314.06 417.30 C 314.13 415.68 314.22 414.07 314.32 412.46 C 312.93 412.96 311.54 413.44 310.14 413.90 M 300.01 423.22 C 300.61 428.44 304.15 432.76 307.05 436.96 C 310.32 440.86 313.35 445.37 317.96 447.78 C 322.36 443.55 325.17 437.97 329.13 433.35 C 320.87 429.17 313.56 423.34 307.70 416.17 C 304.98 418.33 302.00 420.32 300.01 423.22 M 339.17 433.35 C 343.09 438.14 346.56 443.29 350.78 447.83 C 358.77 440.81 365.29 431.98 368.85 421.90 C 366.13 419.52 363.23 417.37 360.19 415.44 C 354.30 422.60 347.28 428.80 339.17 433.35 M 371.29 423.25 C 366.69 433.75 360.21 443.88 350.83 450.69 C 347.59 449.46 345.92 445.93 343.41 443.69 C 342.23 439.98 339.59 436.67 336.41 434.46 C 333.23 432.36 328.80 435.44 328.76 438.99 C 328.32 446.05 329.27 453.12 329.66 460.17 C 330.15 469.23 330.39 478.30 330.71 487.37 C 331.77 497.88 331.17 508.48 332.18 519.00 C 332.79 537.33 331.97 555.67 331.76 574.00 C 332.50 590.32 332.46 606.66 332.32 622.99 C 332.30 631.40 331.33 639.79 331.61 648.22 C 335.15 648.25 338.69 648.25 342.23 648.26 C 346.23 648.13 350.23 647.88 354.19 647.23 C 369.09 645.81 383.39 640.41 396.44 633.23 C 400.42 631.00 404.28 628.55 407.98 625.88 C 406.95 609.16 402.13 592.82 402.24 576.00 C 401.97 565.60 403.79 555.32 404.51 544.97 C 406.10 524.38 408.45 503.82 409.18 483.17 C 409.75 474.95 410.17 466.73 410.67 458.51 C 412.02 458.42 413.37 458.34 414.72 458.27 C 415.06 470.57 413.44 482.81 413.51 495.10 C 432.01 505.26 451.09 514.34 469.69 524.33 C 473.48 526.34 477.68 527.88 482.05 527.57 C 488.38 527.49 493.71 522.60 495.94 516.93 C 499.75 507.71 498.46 497.57 498.56 487.87 C 491.06 488.25 483.48 489.05 476.03 487.75 C 472.11 487.11 468.20 486.41 464.27 485.86 C 462.69 496.01 463.81 506.25 465.90 516.23 C 464.64 516.20 463.39 516.13 462.14 516.02 C 459.40 512.31 459.51 507.42 458.98 503.04 C 458.25 496.70 459.64 490.39 459.37 484.06 C 458.03 482.94 456.42 482.23 454.91 481.43 C 452.53 478.77 452.02 475.23 452.00 471.79 C 452.09 471.12 452.26 469.79 452.35 469.12 C 450.23 466.12 447.32 463.83 444.79 461.20 C 437.70 453.95 430.83 446.44 423.01 439.96 C 420.89 438.33 418.75 436.52 416.14 435.76 C 414.89 436.33 413.76 437.12 412.60 437.84 C 400.56 430.92 386.82 428.21 373.63 424.35 C 372.85 423.98 372.06 423.61 371.29 423.25 M 291.91 426.81 C 284.35 428.50 276.97 431.06 269.66 433.61 C 262.38 436.61 254.31 440.12 250.36 447.38 C 247.99 451.68 246.36 456.36 245.09 461.10 C 241.69 474.58 243.05 488.63 241.04 502.30 C 239.10 513.15 236.97 523.97 234.63 534.75 C 233.12 541.26 233.29 548.21 230.31 554.32 C 226.98 561.34 225.78 569.11 225.07 576.79 C 230.72 576.78 236.38 576.85 242.00 577.42 C 247.45 577.95 252.60 579.93 257.84 581.38 C 259.65 574.70 261.88 567.98 261.68 560.98 C 261.54 552.89 259.71 544.95 258.94 536.92 C 258.42 534.08 258.66 530.83 256.83 528.42 C 257.32 523.21 257.18 517.83 255.39 512.87 C 256.05 506.91 254.55 500.96 254.60 494.99 C 254.61 483.28 252.91 471.60 253.93 459.90 C 255.29 459.89 256.65 459.89 258.01 459.90 C 258.79 468.64 258.08 477.43 258.79 486.17 C 259.12 512.32 264.06 538.09 266.97 564.01 C 268.11 572.96 267.91 582.00 267.69 591.00 C 267.54 604.06 264.45 616.91 264.65 629.99 C 267.84 631.81 271.06 633.58 274.31 635.30 C 288.17 641.22 302.73 646.13 317.85 647.26 C 321.49 647.74 325.17 647.85 328.84 647.87 C 329.98 638.29 329.57 628.63 329.81 619.00 C 329.89 592.67 329.31 566.34 329.80 540.01 C 330.16 517.65 328.87 495.33 327.94 473.01 C 327.28 462.46 327.57 451.86 326.27 441.36 C 323.71 444.85 321.02 448.25 318.11 451.46 C 309.01 444.70 301.97 435.45 297.46 425.08 C 295.60 425.62 293.74 426.19 291.91 426.81 Z" />
</g>
<g id="#bfd1e6ff">
<path fill="#bfd1e6" opacity="1.00" d=" M 353.94 411.85 C 354.74 412.13 356.33 412.70 357.12 412.98 C 356.21 414.11 355.31 415.24 354.38 416.37 C 354.22 414.86 354.07 413.35 353.94 411.85 Z" />
<path fill="#bfd1e6" opacity="1.00" d=" M 451.06 475.52 C 451.37 474.27 451.70 473.03 452.00 471.79 C 452.02 475.23 452.53 478.77 454.91 481.43 C 455.27 486.31 456.10 491.15 456.26 496.05 C 456.38 499.60 454.48 502.75 452.97 505.83 C 452.06 501.23 451.56 496.58 451.02 491.94 C 450.31 485.65 448.40 479.60 446.79 473.50 C 448.21 474.17 449.63 474.84 451.06 475.52 Z" />
</g>
<g id="#b8c7d7ff">
<path fill="#b8c7d7" opacity="1.00" d=" M 310.14 413.90 C 311.54 413.44 312.93 412.96 314.32 412.46 C 314.22 414.07 314.13 415.68 314.06 417.30 C 312.77 416.14 311.47 415.00 310.14 413.90 Z" />
</g>
<g id="#dceafdff">
<path fill="#dceafd" opacity="1.00" d=" M 300.01 423.22 C 302.00 420.32 304.98 418.33 307.70 416.17 C 313.56 423.34 320.87 429.17 329.13 433.35 C 325.17 437.97 322.36 443.55 317.96 447.78 C 313.35 445.37 310.32 440.86 307.05 436.96 C 304.15 432.76 300.61 428.44 300.01 423.22 Z" />
<path fill="#dceafd" opacity="1.00" d=" M 339.17 433.35 C 347.28 428.80 354.30 422.60 360.19 415.44 C 363.23 417.37 366.13 419.52 368.85 421.90 C 365.29 431.98 358.77 440.81 350.78 447.83 C 346.56 443.29 343.09 438.14 339.17 433.35 Z" />
</g>
<g id="#bbcde2ff">
<path fill="#bbcde2" opacity="1.00" d=" M 371.29 423.25 C 372.06 423.61 372.85 423.98 373.63 424.35 C 368.94 430.94 366.21 438.74 361.07 445.04 C 358.11 449.02 354.40 452.34 350.47 455.33 C 348.35 453.48 346.23 451.64 344.10 449.81 C 343.85 452.95 343.59 456.09 343.53 459.25 C 343.27 454.06 343.51 448.87 343.41 443.69 C 345.92 445.93 347.59 449.46 350.83 450.69 C 360.21 443.88 366.69 433.75 371.29 423.25 Z" />
</g>
<g id="#bccee3ff">
<path fill="#bccee3" opacity="1.00" d=" M 291.91 426.81 C 293.74 426.19 295.60 425.62 297.46 425.08 C 301.97 435.45 309.01 444.70 318.11 451.46 C 321.02 448.25 323.71 444.85 326.27 441.36 C 327.57 451.86 327.28 462.46 327.94 473.01 C 328.87 495.33 330.16 517.65 329.80 540.01 C 329.31 566.34 329.89 592.67 329.81 619.00 C 329.57 628.63 329.98 638.29 328.84 647.87 C 325.17 647.85 321.49 647.74 317.85 647.26 C 320.13 647.19 322.40 647.01 324.68 646.85 C 326.91 624.98 327.57 602.97 326.76 581.00 C 326.55 567.18 326.63 553.33 327.40 539.53 C 328.65 509.67 326.44 479.83 324.31 450.07 C 322.20 451.76 320.18 453.62 317.74 454.81 C 315.84 454.62 314.42 453.15 313.09 451.93 C 306.05 444.77 301.61 435.64 296.76 426.98 C 295.14 426.90 293.52 426.82 291.91 426.81 Z" />
<path fill="#bccee3" opacity="1.00" d=" M 215.40 584.54 C 222.78 580.29 231.57 581.06 239.73 581.61 C 246.95 582.42 254.51 584.10 260.30 588.74 C 262.42 590.16 262.60 592.83 262.60 595.14 C 258.11 592.66 253.69 590.00 248.83 588.28 C 238.12 584.56 226.64 584.01 215.40 584.54 Z" />
</g>
<g id="#deecffff">
<path fill="#deecff" opacity="1.00" d=" M 361.07 445.04 C 366.21 438.74 368.94 430.94 373.63 424.35 C 386.82 428.21 400.56 430.92 412.60 437.84 C 413.76 437.12 414.89 436.33 416.14 435.76 C 418.75 436.52 420.89 438.33 423.01 439.96 C 430.83 446.44 437.70 453.95 444.79 461.20 C 447.32 463.83 450.23 466.12 452.35 469.12 C 452.26 469.79 452.09 471.12 452.00 471.79 C 451.70 473.03 451.37 474.27 451.06 475.52 C 449.63 474.84 448.21 474.17 446.79 473.50 C 448.40 479.60 450.31 485.65 451.02 491.94 C 451.56 496.58 452.06 501.23 452.97 505.83 C 454.48 502.75 456.38 499.60 456.26 496.05 C 456.10 491.15 455.27 486.31 454.91 481.43 C 456.42 482.23 458.03 482.94 459.37 484.06 C 459.64 490.39 458.25 496.70 458.98 503.04 C 459.51 507.42 459.40 512.31 462.14 516.02 C 463.39 516.13 464.64 516.20 465.90 516.23 C 463.81 506.25 462.69 496.01 464.27 485.86 C 468.20 486.41 472.11 487.11 476.03 487.75 C 483.48 489.05 491.06 488.25 498.56 487.87 C 498.46 497.57 499.75 507.71 495.94 516.93 C 493.71 522.60 488.38 527.49 482.05 527.57 C 477.68 527.88 473.48 526.34 469.69 524.33 C 451.09 514.34 432.01 505.26 413.51 495.10 C 413.44 482.81 415.06 470.57 414.72 458.27 C 413.37 458.34 412.02 458.42 410.67 458.51 C 410.17 466.73 409.75 474.95 409.18 483.17 C 409.11 481.32 409.00 479.48 408.89 477.65 C 406.23 486.32 404.88 495.31 402.40 504.03 C 402.05 502.63 401.70 501.23 401.42 499.82 C 400.84 490.38 401.54 480.89 400.51 471.46 C 395.00 471.31 389.50 471.23 384.00 471.32 C 374.42 471.53 364.81 470.82 355.26 471.90 C 355.45 483.22 354.85 494.57 355.82 505.87 C 361.88 507.87 367.82 510.30 373.99 511.96 C 376.96 512.79 380.13 512.77 383.11 511.97 C 389.59 510.28 395.91 507.92 401.88 504.86 C 402.52 510.84 401.88 516.86 400.68 522.73 C 398.65 534.13 395.12 545.21 390.88 555.96 C 389.16 560.18 388.30 564.66 387.77 569.17 C 390.60 566.06 393.30 562.83 396.03 559.63 C 398.74 570.22 397.68 581.20 397.90 592.00 C 398.05 605.75 397.83 619.53 396.44 633.23 C 383.39 640.41 369.09 645.81 354.19 647.23 C 351.17 647.32 348.15 647.23 345.14 647.17 C 346.05 625.79 346.08 604.39 345.66 583.00 C 345.39 555.86 346.32 528.72 345.44 501.59 C 344.65 487.48 344.48 473.35 343.53 459.25 C 343.59 456.09 343.85 452.95 344.10 449.81 C 346.23 451.64 348.35 453.48 350.47 455.33 C 354.40 452.34 358.11 449.02 361.07 445.04 M 377.96 585.95 C 375.68 587.70 373.61 589.71 371.76 591.91 C 378.71 590.68 384.61 586.36 389.66 581.66 C 391.88 579.68 392.47 576.67 393.10 573.91 C 387.04 576.56 383.14 582.09 377.96 585.95 Z" />
<path fill="#deecff" opacity="1.00" d=" M 269.66 433.61 C 276.97 431.06 284.35 428.50 291.91 426.81 C 293.52 426.82 295.14 426.90 296.76 426.98 C 301.61 435.64 306.05 444.77 313.09 451.93 C 314.42 453.15 315.84 454.62 317.74 454.81 C 320.18 453.62 322.20 451.76 324.31 450.07 C 326.44 479.83 328.65 509.67 327.40 539.53 C 326.63 553.33 326.55 567.18 326.76 581.00 C 327.57 602.97 326.91 624.98 324.68 646.85 C 322.40 647.01 320.13 647.19 317.85 647.26 C 302.73 646.13 288.17 641.22 274.31 635.30 C 272.04 623.34 272.29 611.11 271.95 599.00 C 272.10 586.81 271.03 574.57 272.51 562.43 C 275.45 565.25 278.19 568.26 280.84 571.36 C 280.50 567.67 280.05 563.94 278.58 560.51 C 272.75 546.48 268.24 531.82 266.35 516.71 C 264.87 504.51 262.44 492.44 259.11 480.62 C 258.98 482.46 258.86 484.32 258.79 486.17 C 258.08 477.43 258.79 468.64 258.01 459.90 C 256.65 459.89 255.29 459.89 253.93 459.90 C 252.91 471.60 254.61 483.28 254.60 494.99 C 254.55 500.96 256.05 506.91 255.39 512.87 C 255.21 513.46 254.86 514.66 254.69 515.25 C 252.34 511.79 250.22 508.18 248.00 504.64 C 246.53 513.51 250.57 522.29 256.83 528.42 C 258.66 530.83 258.42 534.08 258.94 536.92 C 259.71 544.95 261.54 552.89 261.68 560.98 C 261.88 567.98 259.65 574.70 257.84 581.38 C 252.60 579.93 247.45 577.95 242.00 577.42 C 236.38 576.85 230.72 576.78 225.07 576.79 C 225.78 569.11 226.98 561.34 230.31 554.32 C 233.29 548.21 233.12 541.26 234.63 534.75 C 236.97 523.97 239.10 513.15 241.04 502.30 C 243.05 488.63 241.69 474.58 245.09 461.10 C 246.36 456.36 247.99 451.68 250.36 447.38 C 254.31 440.12 262.38 436.61 269.66 433.61 M 275.91 575.74 C 276.57 578.00 277.10 580.43 278.70 582.26 C 283.27 587.51 289.36 591.70 296.35 592.81 C 292.76 587.97 287.21 585.22 283.28 580.72 C 281.30 578.43 278.74 576.77 275.91 575.74 Z" />
<path fill="#deecff" opacity="1.00" d=" M 339.74 441.44 C 340.58 445.57 340.85 449.79 341.02 454.00 C 341.42 467.52 342.02 481.04 342.53 494.56 C 343.89 518.67 343.32 542.83 343.07 566.96 C 343.46 581.64 343.33 596.32 343.36 611.00 C 343.31 623.42 343.72 635.89 342.23 648.26 C 338.69 648.25 335.15 648.25 331.61 648.22 C 331.33 639.79 332.30 631.40 332.32 622.99 C 332.46 606.66 332.50 590.32 331.76 574.00 C 331.97 555.67 332.79 537.33 332.18 519.00 C 331.17 508.48 331.77 497.88 330.71 487.37 C 330.39 478.30 330.15 469.23 329.66 460.17 C 329.61 454.65 329.67 449.14 329.65 443.63 C 332.03 444.06 334.41 444.50 336.77 445.00 C 337.76 443.81 338.75 442.62 339.74 441.44 M 334.47 476.39 C 332.37 477.75 331.66 480.84 332.98 482.97 C 335.00 485.91 341.03 485.06 340.73 480.91 C 341.45 477.34 337.51 475.18 334.47 476.39 M 335.13 515.87 C 334.57 518.24 332.44 521.21 334.64 523.35 C 337.36 525.94 342.95 523.22 341.59 519.37 C 341.11 516.21 337.53 516.36 335.13 515.87 M 336.47 556.40 C 333.62 557.19 332.79 561.18 334.63 563.37 C 336.32 564.76 338.71 564.54 340.60 563.72 C 343.36 560.80 340.74 554.75 336.47 556.40 M 335.49 604.41 C 332.12 606.11 333.33 612.36 337.18 612.65 C 340.32 612.89 342.70 609.34 341.59 606.47 C 340.83 603.96 337.60 603.66 335.49 604.41 Z" />
<path fill="#deecff" opacity="1.00" d=" M 358.05 485.05 C 362.48 485.71 366.90 486.49 371.22 487.73 C 374.72 488.66 378.41 490.02 382.04 488.90 C 387.33 487.39 392.60 485.73 398.06 484.91 C 398.53 491.21 398.75 497.55 398.18 503.85 C 391.49 505.82 385.08 509.19 378.08 509.78 C 371.30 508.69 364.99 505.71 358.45 503.73 C 357.89 497.52 357.63 491.28 358.05 485.05 Z" />
</g>
<g id="#070504ff">
<path fill="#070504" opacity="1.00" d=" M 474.31 429.90 C 474.82 428.49 475.33 427.09 475.85 425.70 C 476.74 425.76 478.51 425.90 479.40 425.97 C 477.04 437.36 473.52 448.47 470.23 459.61 C 470.03 459.83 469.62 460.28 469.42 460.51 C 468.24 460.50 467.07 460.49 465.90 460.50 L 465.77 459.54 C 466.56 456.85 467.46 454.19 468.16 451.48 C 470.00 444.23 471.78 436.94 474.31 429.90 Z" />
</g>
<g id="#96a4b6ff">
<path fill="#96a4b6" opacity="1.00" d=" M 328.76 438.99 C 328.80 435.44 333.23 432.36 336.41 434.46 C 339.59 436.67 342.23 439.98 343.41 443.69 C 343.51 448.87 343.27 454.06 343.53 459.25 C 344.48 473.35 344.65 487.48 345.44 501.59 C 346.32 528.72 345.39 555.86 345.66 583.00 C 346.08 604.39 346.05 625.79 345.14 647.17 C 348.15 647.23 351.17 647.32 354.19 647.23 C 350.23 647.88 346.23 648.13 342.23 648.26 C 343.72 635.89 343.31 623.42 343.36 611.00 C 343.33 596.32 343.46 581.64 343.07 566.96 C 343.32 542.83 343.89 518.67 342.53 494.56 C 342.02 481.04 341.42 467.52 341.02 454.00 C 340.85 449.79 340.58 445.57 339.74 441.44 C 338.81 439.68 337.88 437.84 336.36 436.53 C 333.50 435.31 330.24 438.44 331.49 441.33 C 332.82 443.05 334.96 443.87 336.77 445.00 C 334.41 444.50 332.03 444.06 329.65 443.63 C 329.67 449.14 329.61 454.65 329.66 460.17 C 329.27 453.12 328.32 446.05 328.76 438.99 Z" />
</g>
<g id="#c69a3eff">
<path fill="#c69a3e" opacity="1.00" d=" M 331.49 441.33 C 330.24 438.44 333.50 435.31 336.36 436.53 C 337.88 437.84 338.81 439.68 339.74 441.44 C 338.75 442.62 337.76 443.81 336.77 445.00 C 334.96 443.87 332.82 443.05 331.49 441.33 Z" />
</g>
<g id="#ddebfeff">
<path fill="#ddebfe" opacity="1.00" d=" M 455.99 474.21 C 457.73 467.86 460.47 461.61 465.41 457.09 C 465.50 457.70 465.68 458.93 465.77 459.54 L 465.90 460.50 C 467.89 463.41 470.93 465.29 473.98 466.93 C 471.17 467.71 468.38 468.51 465.60 469.36 C 477.73 470.65 491.86 469.63 500.72 460.18 C 502.52 463.94 504.60 467.67 505.33 471.83 C 505.15 473.08 504.96 474.33 504.75 475.59 C 491.43 480.44 476.80 481.00 463.06 477.68 C 460.52 476.92 458.26 475.51 455.99 474.21 Z" />
<path fill="#ddebfe" opacity="1.00" d=" M 215.40 584.54 C 226.64 584.01 238.12 584.56 248.83 588.28 C 253.69 590.00 258.11 592.66 262.60 595.14 C 260.97 600.26 257.84 604.72 253.73 608.15 C 253.52 607.72 253.09 606.86 252.88 606.42 C 251.86 604.45 250.55 602.59 248.72 601.30 C 241.47 596.14 232.74 593.20 223.86 592.78 C 226.13 594.12 228.43 595.41 230.76 596.67 C 226.34 597.62 221.98 599.42 219.67 603.57 C 216.43 597.76 215.16 591.16 215.40 584.54 Z" />
</g>
<g id="#99a8b9ff">
<path fill="#99a8b9" opacity="1.00" d=" M 355.26 471.90 C 364.81 470.82 374.42 471.53 384.00 471.32 C 389.50 471.23 395.00 471.31 400.51 471.46 C 401.54 480.89 400.84 490.38 401.42 499.82 C 401.57 501.50 401.73 503.18 401.88 504.86 C 395.91 507.92 389.59 510.28 383.11 511.97 C 380.13 512.77 376.96 512.79 373.99 511.96 C 367.82 510.30 361.88 507.87 355.82 505.87 C 354.85 494.57 355.45 483.22 355.26 471.90 M 357.92 474.26 C 357.95 476.76 357.96 479.27 357.94 481.78 C 363.02 483.04 368.12 484.28 373.33 484.83 C 373.66 485.56 374.30 487.02 374.62 487.74 C 377.70 487.72 380.77 487.60 383.84 487.40 C 383.64 485.86 383.47 484.32 383.17 482.81 C 383.43 483.34 383.97 484.42 384.24 484.96 C 388.91 483.80 394.14 483.70 398.19 480.86 C 398.44 478.53 398.30 476.18 398.26 473.85 C 384.82 473.69 371.35 473.60 357.92 474.26 M 358.05 485.05 C 357.63 491.28 357.89 497.52 358.45 503.73 C 364.99 505.71 371.30 508.69 378.08 509.78 C 385.08 509.19 391.49 505.82 398.18 503.85 C 398.75 497.55 398.53 491.21 398.06 484.91 C 392.60 485.73 387.33 487.39 382.04 488.90 C 378.41 490.02 374.72 488.66 371.22 487.73 C 366.90 486.49 362.48 485.71 358.05 485.05 Z" />
</g>
<g id="#bdcee4ff">
<path fill="#bdcee4" opacity="1.00" d=" M 505.33 471.83 C 505.55 474.27 506.42 477.40 504.30 479.29 C 500.41 482.66 495.03 483.50 490.06 483.78 C 480.20 484.15 470.07 483.00 460.95 479.04 C 458.70 478.16 457.05 476.32 455.99 474.21 C 458.26 475.51 460.52 476.92 463.06 477.68 C 476.80 481.00 491.43 480.44 504.75 475.59 C 504.96 474.33 505.15 473.08 505.33 471.83 Z" />
</g>
<g id="#dae8fbff">
<path fill="#dae8fb" opacity="1.00" d=" M 357.92 474.26 C 371.35 473.60 384.82 473.69 398.26 473.85 C 398.30 476.18 398.44 478.53 398.19 480.86 C 394.14 483.70 388.91 483.80 384.24 484.96 C 383.97 484.42 383.43 483.34 383.17 482.81 C 382.14 480.83 380.89 477.88 378.15 478.35 C 374.99 478.66 374.62 482.58 373.33 484.83 C 368.12 484.28 363.02 483.04 357.94 481.78 C 357.96 479.27 357.95 476.76 357.92 474.26 Z" />
</g>
<g id="#616571ff">
<path fill="#616571" opacity="1.00" d=" M 334.47 476.39 C 337.51 475.18 341.45 477.34 340.73 480.91 C 341.03 485.06 335.00 485.91 332.98 482.97 C 331.66 480.84 332.37 477.75 334.47 476.39 M 333.26 482.33 C 335.43 482.42 337.60 482.42 339.77 482.37 C 339.11 480.46 339.09 476.55 336.11 477.21 C 333.72 477.36 333.98 480.67 333.26 482.33 Z" />
<path fill="#616571" opacity="1.00" d=" M 373.33 484.83 C 374.62 482.58 374.99 478.66 378.15 478.35 C 380.89 477.88 382.14 480.83 383.17 482.81 C 383.47 484.32 383.64 485.86 383.84 487.40 C 380.77 487.60 377.70 487.72 374.62 487.74 C 374.30 487.02 373.66 485.56 373.33 484.83 M 375.09 485.69 C 377.35 485.66 379.61 485.67 381.87 485.71 C 381.40 483.66 382.00 479.74 379.01 479.70 C 375.54 479.17 375.45 483.33 375.09 485.69 Z" />
<path fill="#616571" opacity="1.00" d=" M 335.49 604.41 C 337.60 603.66 340.83 603.96 341.59 606.47 C 342.70 609.34 340.32 612.89 337.18 612.65 C 333.33 612.36 332.12 606.11 335.49 604.41 M 336.26 605.15 C 333.22 606.74 335.26 612.24 338.73 610.81 C 342.06 609.13 339.88 603.65 336.26 605.15 Z" />
<path fill="#616571" opacity="1.00" d=" M 273.85 942.53 C 276.15 941.17 278.44 939.54 281.15 939.12 C 283.14 938.85 284.78 940.28 286.44 941.15 C 282.27 941.83 278.07 942.33 273.85 942.53 Z" />
</g>
<g id="#d3a23cff">
<path fill="#d3a23c" opacity="1.00" d=" M 333.26 482.33 C 333.98 480.67 333.72 477.36 336.11 477.21 C 339.09 476.55 339.11 480.46 339.77 482.37 C 337.60 482.42 335.43 482.42 333.26 482.33 Z" />
</g>
<g id="#bccee4ff">
<path fill="#bccee4" opacity="1.00" d=" M 402.40 504.03 C 404.88 495.31 406.23 486.32 408.89 477.65 C 409.00 479.48 409.11 481.32 409.18 483.17 C 408.45 503.82 406.10 524.38 404.51 544.97 C 403.79 555.32 401.97 565.60 402.24 576.00 C 402.13 592.82 406.95 609.16 407.98 625.88 C 404.28 628.55 400.42 631.00 396.44 633.23 C 397.83 619.53 398.05 605.75 397.90 592.00 C 397.68 581.20 398.74 570.22 396.03 559.63 C 393.30 562.83 390.60 566.06 387.77 569.17 C 388.30 564.66 389.16 560.18 390.88 555.96 C 395.12 545.21 398.65 534.13 400.68 522.73 C 401.88 516.86 402.52 510.84 401.88 504.86 C 401.73 503.18 401.57 501.50 401.42 499.82 C 401.70 501.23 402.05 502.63 402.40 504.03 Z" />
<path fill="#bccee4" opacity="1.00" d=" M 259.11 480.62 C 262.44 492.44 264.87 504.51 266.35 516.71 C 268.24 531.82 272.75 546.48 278.58 560.51 C 280.05 563.94 280.50 567.67 280.84 571.36 C 278.19 568.26 275.45 565.25 272.51 562.43 C 271.03 574.57 272.10 586.81 271.95 599.00 C 272.29 611.11 272.04 623.34 274.31 635.30 C 271.06 633.58 267.84 631.81 264.65 629.99 C 264.45 616.91 267.54 604.06 267.69 591.00 C 267.91 582.00 268.11 572.96 266.97 564.01 C 264.06 538.09 259.12 512.32 258.79 486.17 C 258.86 484.32 258.98 482.46 259.11 480.62 Z" />
</g>
<g id="#d09f3bff">
<path fill="#d09f3b" opacity="1.00" d=" M 375.09 485.69 C 375.45 483.33 375.54 479.17 379.01 479.70 C 382.00 479.74 381.40 483.66 381.87 485.71 C 379.61 485.67 377.35 485.66 375.09 485.69 Z" />
</g>
<g id="#c0d1e7ff">
<path fill="#c0d1e7" opacity="1.00" d=" M 256.83 528.42 C 250.57 522.29 246.53 513.51 248.00 504.64 C 250.22 508.18 252.34 511.79 254.69 515.25 C 254.86 514.66 255.21 513.46 255.39 512.87 C 257.18 517.83 257.32 523.21 256.83 528.42 Z" />
</g>
<g id="#c89c3eff">
<path fill="#c89c3e" opacity="1.00" d=" M 335.13 515.87 C 337.53 516.36 341.11 516.21 341.59 519.37 C 342.95 523.22 337.36 525.94 334.64 523.35 C 332.44 521.21 334.57 518.24 335.13 515.87 Z" />
</g>
<g id="#c69b3eff">
<path fill="#c69b3e" opacity="1.00" d=" M 336.47 556.40 C 340.74 554.75 343.36 560.80 340.60 563.72 C 338.71 564.54 336.32 564.76 334.63 563.37 C 332.79 561.18 333.62 557.19 336.47 556.40 Z" />
</g>
<g id="#c4d5eaff">
<path fill="#c4d5ea" opacity="1.00" d=" M 377.96 585.95 C 383.14 582.09 387.04 576.56 393.10 573.91 C 392.47 576.67 391.88 579.68 389.66 581.66 C 384.61 586.36 378.71 590.68 371.76 591.91 C 373.61 589.71 375.68 587.70 377.96 585.95 Z" />
</g>
<g id="#c4d5ebff">
<path fill="#c4d5eb" opacity="1.00" d=" M 275.91 575.74 C 278.74 576.77 281.30 578.43 283.28 580.72 C 287.21 585.22 292.76 587.97 296.35 592.81 C 289.36 591.70 283.27 587.51 278.70 582.26 C 277.10 580.43 276.57 578.00 275.91 575.74 Z" />
</g>
<g id="#070505ff">
<path fill="#070505" opacity="1.00" d=" M 222.04 601.32 C 223.24 601.13 224.45 600.95 225.66 600.78 C 225.80 611.90 227.22 622.94 227.84 634.03 C 228.39 640.33 223.71 645.20 221.78 650.83 C 217.76 662.10 216.37 674.58 219.41 686.27 C 219.83 682.09 220.19 677.90 220.63 673.72 C 223.34 682.31 221.23 692.28 226.97 699.82 C 226.31 691.43 225.55 682.99 226.64 674.60 C 227.79 679.36 228.30 684.24 228.77 689.11 C 229.60 697.86 234.17 705.83 239.94 712.29 C 239.00 707.66 237.16 703.29 234.92 699.15 C 231.20 691.91 231.65 683.37 233.02 675.58 C 233.90 680.61 234.19 685.73 235.20 690.74 C 236.51 697.22 240.20 703.39 246.29 706.39 C 244.41 699.82 239.75 694.10 239.64 687.06 C 239.43 680.31 240.39 673.61 241.19 666.94 C 243.42 672.62 245.68 678.55 250.05 682.98 C 251.78 684.91 254.44 685.32 256.81 685.95 C 254.80 681.58 252.52 677.27 251.40 672.55 C 249.88 666.24 249.80 659.61 247.58 653.46 C 245.56 647.70 241.73 642.85 238.11 638.02 C 242.19 626.93 245.69 615.63 249.67 604.50 C 250.76 605.10 251.83 605.73 252.88 606.42 C 253.09 606.86 253.52 607.72 253.73 608.15 C 252.68 610.03 251.71 611.98 250.93 614.00 C 249.03 619.76 247.36 625.60 245.27 631.29 C 244.45 634.00 243.15 636.74 243.44 639.64 C 245.30 643.62 248.32 646.97 249.88 651.12 C 252.13 656.21 252.33 661.83 252.96 667.27 C 253.69 674.61 259.04 680.23 260.98 687.18 C 258.56 688.54 255.90 690.30 253.00 689.34 C 248.32 688.10 246.08 683.38 243.33 679.86 C 243.35 683.69 242.96 687.60 243.84 691.38 C 245.42 696.19 248.93 700.13 250.26 705.05 C 251.13 708.13 250.24 711.30 249.56 714.32 C 247.40 714.50 245.14 714.38 243.15 715.35 C 241.57 715.92 239.75 717.28 238.26 715.76 C 233.79 712.29 229.02 709.01 225.60 704.42 C 222.68 700.54 220.27 696.30 217.92 692.05 C 215.39 687.47 215.09 682.13 214.69 677.03 C 214.09 668.70 216.06 660.47 218.20 652.48 C 219.32 648.09 221.89 644.26 223.23 639.95 C 223.92 634.29 222.54 628.63 222.51 622.97 C 222.50 618.06 221.53 613.20 221.63 608.30 C 221.73 605.96 221.89 603.64 222.04 601.32 Z" />
</g>
<g id="#ce9f3eff">
<path fill="#ce9f3e" opacity="1.00" d=" M 336.26 605.15 C 339.88 603.65 342.06 609.13 338.73 610.81 C 335.26 612.24 333.22 606.74 336.26 605.15 Z" />
</g>
<g id="#091429ff">
<path fill="#091429" opacity="1.00" d=" M 399.49 636.74 C 400.93 635.94 402.35 635.11 403.75 634.27 C 409.25 653.61 410.63 673.81 412.07 693.79 C 412.92 707.51 413.53 721.25 413.74 735.00 C 414.71 749.00 414.12 763.10 416.15 777.02 C 417.38 794.05 422.79 810.86 420.78 828.04 C 420.36 843.51 418.39 858.87 417.13 874.27 C 416.63 877.01 417.95 879.42 419.59 881.51 C 418.71 885.52 418.80 889.73 417.50 893.64 C 416.82 893.84 415.47 894.24 414.80 894.43 C 413.46 894.59 412.12 894.77 410.78 894.94 C 405.04 895.62 399.28 896.12 393.56 896.90 C 392.19 897.06 390.82 897.21 389.45 897.32 C 387.96 897.55 386.24 897.08 385.62 895.58 C 383.92 891.81 383.41 887.63 383.35 883.54 C 383.29 879.44 381.63 875.63 380.59 871.74 C 377.07 858.60 373.96 845.37 371.26 832.04 C 368.14 818.26 367.06 804.10 367.32 790.00 C 367.74 781.46 364.47 773.45 362.46 765.32 C 353.59 732.06 345.75 698.54 338.77 664.84 C 336.04 685.59 333.36 706.35 330.00 727.00 C 327.06 745.85 324.19 764.73 320.07 783.37 C 316.31 795.54 318.45 808.43 317.05 820.92 C 313.86 840.29 308.01 859.06 302.70 877.92 C 301.39 881.48 302.72 885.15 302.63 888.77 C 301.44 893.34 300.90 899.00 296.01 901.18 C 295.87 900.38 295.73 899.60 295.60 898.82 C 287.52 901.79 278.76 899.35 270.67 897.64 C 269.66 897.32 268.71 896.84 267.84 896.26 C 265.83 890.29 267.48 884.07 267.54 877.99 C 265.55 851.64 262.67 825.00 266.47 798.67 C 267.72 791.01 268.91 783.34 270.58 775.75 C 272.25 768.26 270.60 760.62 270.54 753.07 C 268.94 718.79 266.72 684.37 269.55 650.09 C 269.83 646.32 270.58 642.60 271.36 638.92 C 272.44 639.35 273.52 639.76 274.61 640.19 C 275.37 649.16 273.71 658.06 273.39 667.01 C 272.20 702.04 275.02 737.02 276.44 772.00 C 276.87 778.99 273.56 785.32 272.08 791.97 C 268.60 809.84 268.78 828.16 269.71 846.27 C 270.64 858.23 270.75 870.28 272.82 882.13 C 280.63 883.47 288.55 884.15 296.47 883.63 C 301.73 864.68 307.71 845.89 311.47 826.56 C 313.26 817.81 312.92 808.85 312.95 799.98 C 312.96 789.43 315.74 779.20 317.73 768.92 C 323.90 735.15 328.76 701.15 333.26 667.13 C 333.32 665.32 333.61 663.26 332.45 661.72 C 326.70 660.18 320.19 660.60 315.41 656.46 C 321.40 656.40 327.41 656.75 333.37 655.93 C 339.13 655.09 344.84 656.73 350.49 657.68 C 348.11 658.96 345.74 660.26 343.36 661.55 C 346.23 679.35 350.76 696.84 354.69 714.42 C 359.09 732.82 363.55 751.20 368.63 769.43 C 370.08 774.75 372.35 780.00 372.21 785.62 C 369.99 814.39 378.01 842.55 384.81 870.21 C 385.81 873.96 386.41 878.04 388.79 881.25 C 396.41 882.48 404.05 880.26 411.60 879.39 C 414.31 862.58 415.11 845.52 416.42 828.56 C 417.40 816.97 415.75 805.39 413.83 793.99 C 412.47 786.02 410.36 778.15 409.94 770.04 C 408.04 734.63 408.17 699.07 404.11 663.79 C 403.10 654.69 401.07 645.75 399.49 636.74 M 388.01 886.20 C 388.13 888.39 388.21 890.58 388.30 892.78 C 396.91 893.38 405.44 891.74 413.94 890.62 C 414.20 888.19 414.49 885.77 414.81 883.36 C 405.84 883.91 396.90 884.91 388.01 886.20 M 271.27 886.50 C 271.19 888.91 271.09 891.32 270.99 893.74 C 279.50 894.56 288.03 895.34 296.59 895.42 C 297.07 893.07 297.60 890.73 298.15 888.40 C 289.21 887.55 280.25 886.93 271.27 886.50 Z" />
</g>
<g id="#162447ff">
<path fill="#162447" opacity="1.00" d=" M 354.85 651.65 C 370.62 649.92 385.57 644.13 399.49 636.74 C 401.07 645.75 403.10 654.69 404.11 663.79 C 408.17 699.07 408.04 734.63 409.94 770.04 C 410.36 778.15 412.47 786.02 413.83 793.99 C 415.75 805.39 417.40 816.97 416.42 828.56 C 415.11 845.52 414.31 862.58 411.60 879.39 C 404.05 880.26 396.41 882.48 388.79 881.25 C 386.41 878.04 385.81 873.96 384.81 870.21 C 378.01 842.55 369.99 814.39 372.21 785.62 C 372.35 780.00 370.08 774.75 368.63 769.43 C 363.55 751.20 359.09 732.82 354.69 714.42 C 350.76 696.84 346.23 679.35 343.36 661.55 C 345.74 660.26 348.11 658.96 350.49 657.68 C 344.84 656.73 339.13 655.09 333.37 655.93 C 327.41 656.75 321.40 656.40 315.41 656.46 C 320.19 660.60 326.70 660.18 332.45 661.72 C 333.61 663.26 333.32 665.32 333.26 667.13 C 328.76 701.15 323.90 735.15 317.73 768.92 C 315.74 779.20 312.96 789.43 312.95 799.98 C 312.92 808.85 313.26 817.81 311.47 826.56 C 307.71 845.89 301.73 864.68 296.47 883.63 C 288.55 884.15 280.63 883.47 272.82 882.13 C 270.75 870.28 270.64 858.23 269.71 846.27 C 268.78 828.16 268.60 809.84 272.08 791.97 C 273.56 785.32 276.87 778.99 276.44 772.00 C 275.02 737.02 272.20 702.04 273.39 667.01 C 273.71 658.06 275.37 649.16 274.61 640.19 C 278.73 641.75 282.77 643.50 286.90 645.03 C 308.63 652.60 332.09 654.07 354.85 651.65 Z" />
</g>
<g id="#1a3259ff">
<path fill="#1a3259" opacity="1.00" d=" M 388.01 886.20 C 396.90 884.91 405.84 883.91 414.81 883.36 C 414.49 885.77 414.20 888.19 413.94 890.62 C 405.44 891.74 396.91 893.38 388.30 892.78 C 388.21 890.58 388.13 888.39 388.01 886.20 Z" />
</g>
<g id="#1a335aff">
<path fill="#1a335a" opacity="1.00" d=" M 271.27 886.50 C 280.25 886.93 289.21 887.55 298.15 888.40 C 297.60 890.73 297.07 893.07 296.59 895.42 C 288.03 895.34 279.50 894.56 270.99 893.74 C 271.09 891.32 271.19 888.91 271.27 886.50 Z" />
</g>
<g id="#020208ff">
<path fill="#020208" opacity="1.00" d=" M 410.78 894.94 C 412.12 894.77 413.46 894.59 414.80 894.43 C 418.19 894.47 422.03 894.91 424.50 897.49 C 426.57 899.73 427.82 902.56 429.33 905.18 C 427.67 906.62 426.03 908.09 424.29 909.44 C 423.52 906.09 423.42 901.74 420.01 899.89 C 417.08 898.21 413.28 900.41 412.29 903.38 C 412.15 906.22 413.47 908.87 414.31 911.53 C 407.61 911.93 401.09 910.15 395.14 907.19 C 395.33 913.45 394.52 919.76 391.64 925.40 C 390.66 927.85 389.94 930.41 389.47 933.02 C 389.26 934.22 389.06 935.44 388.89 936.67 C 390.17 937.29 391.46 937.92 392.75 938.57 C 399.83 943.72 407.40 948.23 414.03 953.99 C 418.59 957.91 423.56 961.36 428.92 964.11 C 428.84 964.48 428.68 965.24 428.60 965.62 C 418.60 961.12 411.05 952.98 402.01 947.01 C 397.71 944.00 393.43 940.84 388.46 939.03 C 392.58 944.62 399.15 947.40 404.63 951.37 C 412.70 956.60 419.75 963.27 428.09 968.08 C 428.90 968.52 429.73 968.96 430.56 969.40 C 440.56 974.52 452.51 975.42 463.32 972.54 C 467.44 971.40 471.61 969.79 474.82 966.87 C 476.87 965.15 476.74 962.26 477.03 959.85 C 476.98 959.18 476.88 957.83 476.83 957.16 C 476.23 955.46 475.54 953.81 474.73 952.22 C 471.83 949.20 468.36 946.16 463.96 946.00 C 456.40 945.16 449.08 950.25 446.30 957.14 C 445.17 959.67 444.13 962.24 442.92 964.74 L 442.06 964.56 C 442.34 963.13 442.61 961.71 442.89 960.30 C 444.59 953.19 445.01 945.72 442.69 938.70 C 443.12 938.39 443.99 937.77 444.43 937.46 C 446.18 941.63 447.14 946.08 447.32 950.61 C 450.96 947.67 454.93 945.17 459.07 942.99 C 455.23 940.58 451.66 937.74 448.59 934.39 C 451.94 933.20 455.40 932.36 458.83 931.46 C 463.93 936.61 469.68 941.07 474.64 946.38 C 477.67 949.64 481.39 953.14 481.46 957.93 C 481.45 961.67 481.89 966.13 479.01 969.03 C 475.48 972.81 470.59 974.98 465.76 976.58 C 450.47 981.15 433.10 978.43 420.34 968.69 C 410.71 961.21 400.97 953.84 390.52 947.52 C 388.54 946.13 386.02 945.10 384.87 942.85 C 383.88 936.84 384.34 930.45 386.89 924.86 C 388.47 921.07 390.74 917.29 390.44 913.04 C 390.04 907.80 389.56 902.57 389.45 897.32 C 390.82 897.21 392.19 897.06 393.56 896.90 C 394.53 898.98 395.04 901.65 397.21 902.88 C 400.09 904.63 403.32 905.68 406.46 906.87 C 407.88 902.88 409.36 898.92 410.78 894.94 Z" />
</g>
<g id="#8c604aff">
<path fill="#8c604a" opacity="1.00" d=" M 393.56 896.90 C 399.28 896.12 405.04 895.62 410.78 894.94 C 409.36 898.92 407.88 902.88 406.46 906.87 C 403.32 905.68 400.09 904.63 397.21 902.88 C 395.04 901.65 394.53 898.98 393.56 896.90 Z" />
</g>
<g id="#030309ff">
<path fill="#030309" opacity="1.00" d=" M 270.67 897.64 C 278.76 899.35 287.52 901.79 295.60 898.82 C 295.73 899.60 295.87 900.38 296.01 901.18 C 296.28 902.79 296.48 904.43 296.71 906.07 C 299.40 906.93 303.35 907.58 303.26 911.23 C 303.80 920.42 305.59 929.45 307.38 938.47 C 308.84 945.65 309.08 953.13 311.74 960.05 C 313.84 965.91 312.42 972.66 308.47 977.41 C 297.40 992.05 273.83 993.61 260.12 981.87 C 254.98 977.46 250.74 971.04 251.60 963.97 C 252.57 955.72 254.86 947.65 257.51 939.79 C 260.12 930.80 261.95 921.57 262.73 912.24 C 263.10 910.09 263.12 907.52 264.89 905.98 C 266.68 905.16 268.65 904.88 270.56 904.45 C 270.59 902.17 270.62 899.90 270.67 897.64 M 277.90 904.75 C 274.63 907.98 275.68 913.11 275.30 917.27 C 273.88 914.02 272.21 910.44 268.33 909.74 C 266.35 920.72 265.36 931.98 261.51 942.54 C 259.15 948.40 259.58 954.99 256.82 960.72 C 255.21 963.65 256.03 966.98 256.66 970.06 C 259.74 976.73 266.17 981.48 273.02 983.79 C 283.72 986.63 296.22 984.25 303.89 975.89 C 307.12 972.59 308.09 967.89 307.74 963.42 C 304.11 954.12 303.85 944.04 301.67 934.40 C 300.03 926.84 299.23 919.15 298.44 911.47 C 297.41 911.29 296.39 911.13 295.37 910.97 C 294.15 913.52 292.77 916.01 291.13 918.32 C 291.02 914.28 294.29 908.84 290.22 905.86 C 286.76 903.51 281.59 902.24 277.90 904.75 Z" />
</g>
<g id="#262e44ff">
<path fill="#262e44" opacity="1.00" d=" M 412.29 903.38 C 413.28 900.41 417.08 898.21 420.01 899.89 C 423.42 901.74 423.52 906.09 424.29 909.44 C 419.64 911.06 414.81 912.03 410.11 913.47 C 410.61 914.02 411.62 915.13 412.13 915.68 C 414.23 915.15 416.33 914.61 418.43 914.06 C 417.38 916.88 416.62 919.82 416.34 922.83 C 419.23 922.21 422.11 921.50 425.00 920.82 C 424.12 923.46 423.17 926.08 422.23 928.70 C 429.29 926.70 436.41 924.52 443.82 924.40 C 440.94 928.75 436.12 930.86 431.35 932.45 C 431.37 932.96 431.42 933.98 431.44 934.49 C 433.09 934.39 434.74 934.29 436.39 934.20 C 435.97 936.46 435.58 938.74 435.23 941.03 C 439.68 938.80 443.95 936.20 448.59 934.39 C 451.66 937.74 455.23 940.58 459.07 942.99 C 454.93 945.17 450.96 947.67 447.32 950.61 C 447.14 946.08 446.18 941.63 444.43 937.46 C 443.99 937.77 443.12 938.39 442.69 938.70 C 445.01 945.72 444.59 953.19 442.89 960.30 C 431.13 952.76 419.69 944.71 408.05 936.97 C 402.41 933.36 395.99 930.69 391.64 925.40 C 394.52 919.76 395.33 913.45 395.14 907.19 C 401.09 910.15 407.61 911.93 414.31 911.53 C 413.47 908.87 412.15 906.22 412.29 903.38 Z" />
</g>
<g id="#262e43ff">
<path fill="#262e43" opacity="1.00" d=" M 277.90 904.75 C 281.59 902.24 286.76 903.51 290.22 905.86 C 294.29 908.84 291.02 914.28 291.13 918.32 C 292.77 916.01 294.15 913.52 295.37 910.97 C 296.39 911.13 297.41 911.29 298.44 911.47 C 299.23 919.15 300.03 926.84 301.67 934.40 C 303.85 944.04 304.11 954.12 307.74 963.42 C 306.60 964.65 305.47 965.90 304.38 967.19 C 304.25 966.76 303.99 965.90 303.86 965.47 C 302.79 958.10 294.64 955.68 291.75 949.40 C 291.29 948.53 290.85 947.67 290.43 946.82 C 291.83 945.99 293.24 945.18 294.68 944.41 C 295.09 944.21 295.92 943.79 296.33 943.59 C 294.89 942.03 293.44 940.49 291.99 938.96 C 293.30 938.16 294.61 937.36 295.93 936.57 C 295.91 936.01 295.88 934.90 295.87 934.34 C 292.91 933.01 289.94 931.72 286.94 930.49 C 291.04 930.16 295.64 930.13 298.60 926.82 C 296.27 925.39 293.88 924.08 291.44 922.86 C 293.82 921.79 296.83 921.05 297.73 918.25 C 292.07 918.58 286.39 920.36 280.72 919.16 C 276.86 918.41 273.03 917.53 269.15 916.91 C 269.13 918.10 269.13 919.30 269.13 920.51 C 272.15 920.95 275.18 921.39 278.21 921.83 C 275.00 923.54 271.69 925.08 268.72 927.20 C 269.26 928.86 270.89 929.74 272.12 930.87 C 270.90 932.20 269.70 933.54 268.49 934.89 C 270.04 935.96 271.58 937.03 273.13 938.11 C 271.27 939.77 269.41 941.42 267.54 943.07 C 268.05 944.34 268.56 945.62 269.07 946.91 C 271.27 946.71 273.47 946.51 275.67 946.30 C 274.18 949.11 272.73 952.18 269.90 953.88 C 265.92 956.41 261.57 958.82 259.44 963.28 C 259.23 963.60 258.82 964.26 258.62 964.58 C 258.10 964.48 257.07 964.26 256.56 964.16 C 256.56 966.11 256.56 968.08 256.66 970.06 C 256.03 966.98 255.21 963.65 256.82 960.72 C 259.58 954.99 259.15 948.40 261.51 942.54 C 265.36 931.98 266.35 920.72 268.33 909.74 C 272.21 910.44 273.88 914.02 275.30 917.27 C 275.68 913.11 274.63 907.98 277.90 904.75 Z" />
</g>
<g id="#dbdcdcff">
<path fill="#dbdcdc" opacity="1.00" d=" M 429.33 905.18 C 429.78 906.08 430.22 906.98 430.68 907.90 C 429.86 908.83 429.04 909.76 428.23 910.71 C 429.52 910.65 430.81 910.60 432.11 910.59 C 434.83 910.01 436.68 911.77 437.42 914.27 C 436.32 913.88 433.95 914.27 434.43 915.89 C 435.41 916.88 436.84 915.89 437.94 915.64 C 439.60 915.47 441.28 915.61 442.96 915.68 C 442.88 916.64 442.72 918.55 442.64 919.51 C 439.45 918.94 436.18 918.88 432.99 919.36 C 430.29 919.59 428.61 921.95 426.78 923.65 C 432.71 922.84 438.57 921.63 444.49 920.71 C 446.43 920.55 448.54 920.62 450.25 921.67 C 452.01 922.82 450.26 923.74 449.25 924.60 C 448.04 925.59 446.82 926.57 445.62 927.57 C 447.84 927.54 450.07 927.49 452.30 927.47 C 455.48 927.05 458.59 928.02 459.99 931.14 L 458.83 931.46 C 455.40 932.36 451.94 933.20 448.59 934.39 C 443.95 936.20 439.68 938.80 435.23 941.03 C 435.58 938.74 435.97 936.46 436.39 934.20 C 434.74 934.29 433.09 934.39 431.44 934.49 C 431.42 933.98 431.37 932.96 431.35 932.45 C 436.12 930.86 440.94 928.75 443.82 924.40 C 436.41 924.52 429.29 926.70 422.23 928.70 C 423.17 926.08 424.12 923.46 425.00 920.82 C 422.11 921.50 419.23 922.21 416.34 922.83 C 416.62 919.82 417.38 916.88 418.43 914.06 C 416.33 914.61 414.23 915.15 412.13 915.68 C 411.62 915.13 410.61 914.02 410.11 913.47 C 414.81 912.03 419.64 911.06 424.29 909.44 C 426.03 908.09 427.67 906.62 429.33 905.18 M 419.49 918.59 C 423.80 917.95 428.69 917.65 431.61 913.92 C 429.12 913.76 426.60 913.41 424.14 913.89 C 422.19 915.00 420.91 916.91 419.49 918.59 M 440.56 934.08 C 442.87 933.28 445.13 932.33 447.29 931.18 C 444.60 931.05 441.79 931.31 440.56 934.08 Z" />
<path fill="#dbdcdc" opacity="1.00" d=" M 388.46 939.03 C 393.43 940.84 397.71 944.00 402.01 947.01 C 411.05 952.98 418.60 961.12 428.60 965.62 C 428.44 966.43 428.27 967.25 428.09 968.08 C 419.75 963.27 412.70 956.60 404.63 951.37 C 399.15 947.40 392.58 944.62 388.46 939.03 Z" />
</g>
<g id="#293041ff">
<path fill="#293041" opacity="1.00" d=" M 419.49 918.59 C 420.91 916.91 422.19 915.00 424.14 913.89 C 426.60 913.41 429.12 913.76 431.61 913.92 C 428.69 917.65 423.80 917.95 419.49 918.59 Z" />
</g>
<g id="#d2d2d2ff">
<path fill="#d2d2d2" opacity="1.00" d=" M 269.15 916.91 C 273.03 917.53 276.86 918.41 280.72 919.16 C 286.39 920.36 292.07 918.58 297.73 918.25 C 296.83 921.05 293.82 921.79 291.44 922.86 C 293.88 924.08 296.27 925.39 298.60 926.82 C 295.64 930.13 291.04 930.16 286.94 930.49 C 289.94 931.72 292.91 933.01 295.87 934.34 C 295.88 934.90 295.91 936.01 295.93 936.57 C 294.61 937.36 293.30 938.16 291.99 938.96 C 293.44 940.49 294.89 942.03 296.33 943.59 C 295.92 943.79 295.09 944.21 294.68 944.41 C 292.23 944.88 289.75 945.18 287.26 945.38 C 283.39 945.57 279.52 945.82 275.67 946.30 C 273.47 946.51 271.27 946.71 269.07 946.91 C 268.56 945.62 268.05 944.34 267.54 943.07 C 269.41 941.42 271.27 939.77 273.13 938.11 C 271.58 937.03 270.04 935.96 268.49 934.89 C 269.70 933.54 270.90 932.20 272.12 930.87 C 270.89 929.74 269.26 928.86 268.72 927.20 C 271.69 925.08 275.00 923.54 278.21 921.83 C 275.18 921.39 272.15 920.95 269.13 920.51 C 269.13 919.30 269.13 918.10 269.15 916.91 M 276.52 927.86 C 280.95 928.46 285.37 927.54 289.41 925.73 C 285.14 923.43 279.74 924.10 276.52 927.86 M 275.78 933.13 C 279.13 935.19 283.11 936.22 286.69 934.00 C 283.35 931.91 279.43 932.12 275.78 933.13 M 273.85 942.53 C 278.07 942.33 282.27 941.83 286.44 941.15 C 284.78 940.28 283.14 938.85 281.15 939.12 C 278.44 939.54 276.15 941.17 273.85 942.53 Z" />
<path fill="#d2d2d2" opacity="1.00" d=" M 392.75 938.57 C 401.44 942.19 408.84 948.10 416.27 953.75 C 420.42 956.95 425.22 959.20 429.21 962.62 C 429.14 962.99 429.00 963.73 428.92 964.11 C 423.56 961.36 418.59 957.91 414.03 953.99 C 407.40 948.23 399.83 943.72 392.75 938.57 Z" />
</g>
<g id="#0f1017ff">
<path fill="#0f1017" opacity="1.00" d=" M 426.78 923.65 C 428.61 921.95 430.29 919.59 432.99 919.36 C 436.18 918.88 439.45 918.94 442.64 919.51 C 443.10 919.81 444.03 920.41 444.49 920.71 C 438.57 921.63 432.71 922.84 426.78 923.65 Z" />
</g>
<g id="#4d5261ff">
<path fill="#4d5261" opacity="1.00" d=" M 276.52 927.86 C 279.74 924.10 285.14 923.43 289.41 925.73 C 285.37 927.54 280.95 928.46 276.52 927.86 Z" />
<path fill="#4d5261" opacity="1.00" d=" M 440.56 934.08 C 441.79 931.31 444.60 931.05 447.29 931.18 C 445.13 932.33 442.87 933.28 440.56 934.08 Z" />
</g>
<g id="#191e2cff">
<path fill="#191e2c" opacity="1.00" d=" M 389.47 933.02 C 389.94 930.41 390.66 927.85 391.64 925.40 C 395.99 930.69 402.41 933.36 408.05 936.97 C 419.69 944.71 431.13 952.76 442.89 960.30 C 442.61 961.71 442.34 963.13 442.06 964.56 C 433.61 962.49 425.70 958.52 418.82 953.21 C 409.43 945.93 399.73 939.02 389.47 933.02 Z" />
</g>
<g id="#05060dff">
<path fill="#05060d" opacity="1.00" d=" M 445.62 927.57 C 446.82 926.57 448.04 925.59 449.25 924.60 C 450.26 925.55 451.28 926.51 452.30 927.47 C 450.07 927.49 447.84 927.54 445.62 927.57 Z" />
<path fill="#05060d" opacity="1.00" d=" M 287.26 945.38 C 289.75 945.18 292.23 944.88 294.68 944.41 C 293.24 945.18 291.83 945.99 290.43 946.82 C 290.85 947.67 291.29 948.53 291.75 949.40 C 294.64 955.68 302.79 958.10 303.86 965.47 C 302.45 964.38 301.00 963.36 299.54 962.37 C 292.60 956.64 283.06 956.19 274.58 957.75 C 271.26 958.45 268.55 960.60 265.82 962.48 C 264.01 964.12 261.62 964.03 259.44 963.28 C 261.57 958.82 265.92 956.41 269.90 953.88 C 272.73 952.18 274.18 949.11 275.67 946.30 C 276.40 949.14 276.35 952.09 275.73 954.95 C 280.98 954.84 286.23 954.95 291.48 955.17 C 289.97 951.95 288.57 948.68 287.26 945.38 Z" />
</g>
<g id="#3d4354ff">
<path fill="#3d4354" opacity="1.00" d=" M 275.78 933.13 C 279.43 932.12 283.35 931.91 286.69 934.00 C 283.11 936.22 279.13 935.19 275.78 933.13 Z" />
</g>
<g id="#808081ff">
<path fill="#808081" opacity="1.00" d=" M 389.47 933.02 C 399.73 939.02 409.43 945.93 418.82 953.21 C 425.70 958.52 433.61 962.49 442.06 964.56 L 442.92 964.74 C 450.45 966.55 458.58 966.88 465.89 963.97 C 469.95 962.43 473.41 959.76 476.83 957.16 C 476.88 957.83 476.98 959.18 477.03 959.85 C 471.43 963.41 465.54 967.07 458.76 967.60 C 449.66 968.85 440.59 966.65 432.17 963.33 C 431.63 965.35 431.10 967.36 430.56 969.40 C 429.73 968.96 428.90 968.52 428.09 968.08 C 428.27 967.25 428.44 966.43 428.60 965.62 C 428.68 965.24 428.84 964.48 428.92 964.11 C 429.00 963.73 429.14 962.99 429.21 962.62 C 425.22 959.20 420.42 956.95 416.27 953.75 C 408.84 948.10 401.44 942.19 392.75 938.57 C 391.46 937.92 390.17 937.29 388.89 936.67 C 389.06 935.44 389.26 934.22 389.47 933.02 Z" />
</g>
<g id="#232a3eff">
<path fill="#232a3e" opacity="1.00" d=" M 275.67 946.30 C 279.52 945.82 283.39 945.57 287.26 945.38 C 288.57 948.68 289.97 951.95 291.48 955.17 C 286.23 954.95 280.98 954.84 275.73 954.95 C 276.35 952.09 276.40 949.14 275.67 946.30 Z" />
</g>
<g id="#868a95ff">
<path fill="#868a95" opacity="1.00" d=" M 446.30 957.14 C 449.08 950.25 456.40 945.16 463.96 946.00 C 468.36 946.16 471.83 949.20 474.73 952.22 C 472.00 956.74 467.79 960.40 462.56 961.63 C 457.14 963.28 451.42 962.48 445.92 961.76 C 446.02 960.21 446.12 958.67 446.30 957.14 Z" />
<path fill="#868a95" opacity="1.00" d=" M 274.58 957.75 C 283.06 956.19 292.60 956.64 299.54 962.37 C 295.18 969.44 285.96 970.74 278.39 969.61 C 273.43 968.96 269.36 965.80 265.82 962.48 C 268.55 960.60 271.26 958.45 274.58 957.75 Z" />
</g>
<g id="#1b202eff">
<path fill="#1b202e" opacity="1.00" d=" M 474.73 952.22 C 475.54 953.81 476.23 955.46 476.83 957.16 C 473.41 959.76 469.95 962.43 465.89 963.97 C 458.58 966.88 450.45 966.55 442.92 964.74 C 444.13 962.24 445.17 959.67 446.30 957.14 C 446.12 958.67 446.02 960.21 445.92 961.76 C 451.42 962.48 457.14 963.28 462.56 961.63 C 467.79 960.40 472.00 956.74 474.73 952.22 Z" />
</g>
<g id="#1d212fff">
<path fill="#1d212f" opacity="1.00" d=" M 259.44 963.28 C 261.62 964.03 264.01 964.12 265.82 962.48 C 269.36 965.80 273.43 968.96 278.39 969.61 C 285.96 970.74 295.18 969.44 299.54 962.37 C 301.00 963.36 302.45 964.38 303.86 965.47 C 303.99 965.90 304.25 966.76 304.38 967.19 C 297.52 976.88 284.15 977.70 273.53 975.19 C 267.26 973.93 262.70 969.15 258.62 964.58 C 258.82 964.26 259.23 963.60 259.44 963.28 Z" />
</g>
<g id="#dededeff">
<path fill="#dedede" opacity="1.00" d=" M 256.56 964.16 C 257.07 964.26 258.10 964.48 258.62 964.58 C 262.70 969.15 267.26 973.93 273.53 975.19 C 284.15 977.70 297.52 976.88 304.38 967.19 C 305.47 965.90 306.60 964.65 307.74 963.42 C 308.09 967.89 307.12 972.59 303.89 975.89 C 296.22 984.25 283.72 986.63 273.02 983.79 C 266.17 981.48 259.74 976.73 256.66 970.06 C 256.56 968.08 256.56 966.11 256.56 964.16 Z" />
</g>
</svg>
