<?xml version="1.0" encoding="UTF-8" ?>
<!DOCTYPE svg PUBLIC "-//W3C//DTD SVG 1.1//EN" "http://www.w3.org/Graphics/SVG/1.1/DTD/svg11.dtd">
<svg width="650pt" height="265pt" viewBox="0 0 650 265" version="1.1" xmlns="http://www.w3.org/2000/svg">
<g id="#fbfbfbff">
</g>
<g id="#637dfbff">
<path fill="#637dfb" opacity="1.00" d=" M 181.27 3.20 C 183.56 0.97 186.94 0.89 189.93 0.85 C 223.98 0.99 258.03 0.86 292.08 0.91 C 296.23 0.63 300.60 3.33 301.05 7.70 C 301.99 16.20 300.97 24.77 301.42 33.29 C 328.96 33.40 356.50 33.35 384.04 33.30 C 387.15 33.37 390.76 33.48 392.93 36.08 C 395.35 38.36 395.26 41.89 395.34 44.95 C 395.22 70.71 395.32 96.47 395.27 122.23 C 401.48 122.38 407.69 122.37 413.91 122.28 C 413.95 113.18 413.93 104.08 413.83 94.97 C 413.88 91.61 413.64 87.76 416.13 85.12 C 418.25 82.53 421.84 82.37 424.92 82.30 C 466.28 82.40 507.65 82.29 549.00 82.35 C 553.04 82.11 557.31 84.37 558.36 88.48 C 559.63 94.22 558.83 100.17 558.92 106.00 C 558.92 135.01 558.83 164.03 558.97 193.05 C 558.89 196.64 559.12 200.74 556.61 203.64 C 553.99 206.61 549.71 206.66 546.07 206.71 C 535.25 206.66 524.44 206.61 513.63 206.70 C 513.44 218.49 513.57 230.28 513.59 242.07 C 513.67 245.41 512.97 248.70 511.81 251.82 C 516.85 251.61 521.90 251.63 526.95 251.84 C 526.85 254.67 527.04 257.57 526.32 260.35 C 525.65 262.54 523.51 263.74 521.77 265.00 L 310.17 265.00 C 308.48 263.71 306.37 262.50 305.73 260.33 C 305.03 257.56 305.19 254.67 305.08 251.84 C 310.11 251.63 315.15 251.60 320.18 251.83 C 317.16 242.90 318.98 233.32 318.62 224.10 C 306.04 223.93 293.46 223.96 280.87 224.07 C 281.37 234.38 282.37 244.65 283.15 254.94 C 287.57 255.04 292.13 254.35 296.44 255.55 C 300.06 257.09 298.99 261.86 299.41 265.00 L 221.22 265.00 C 221.07 261.67 220.40 256.74 224.43 255.43 C 228.68 254.45 233.10 255.00 237.42 254.87 C 238.05 244.61 238.81 234.36 239.79 224.13 C 211.21 223.89 182.62 224.09 154.04 224.02 C 154.05 233.02 153.99 242.02 154.10 251.01 C 154.06 253.88 154.21 256.80 153.52 259.61 C 152.85 262.13 150.51 263.59 148.53 265.00 L 105.27 265.00 C 103.43 263.49 101.24 261.99 100.56 259.57 C 99.83 256.78 99.95 253.87 99.91 251.01 C 100.05 235.43 99.89 219.85 100.00 204.27 C 86.13 215.11 65.13 215.67 50.96 205.09 C 40.13 197.41 33.26 184.32 33.88 170.96 C 33.58 152.03 48.73 134.53 67.24 131.37 C 75.69 130.01 84.63 130.81 92.39 134.57 C 103.28 139.81 111.66 149.88 114.79 161.57 C 118.16 161.60 121.52 161.65 124.89 161.77 C 124.97 122.16 124.93 82.54 124.90 42.92 C 124.85 40.25 125.55 37.43 127.65 35.63 C 130.11 33.26 133.77 33.40 136.94 33.29 C 150.89 33.33 164.84 33.44 178.79 33.25 C 178.83 26.50 178.67 19.74 178.67 12.98 C 178.80 9.63 178.61 5.70 181.27 3.20 M 182.01 5.95 C 180.34 8.99 181.25 12.66 181.00 15.98 C 220.33 16.00 259.66 16.02 299.00 15.98 C 298.94 13.08 299.19 10.15 298.68 7.29 C 297.78 4.02 294.12 2.90 291.08 3.03 C 257.71 2.99 224.33 3.06 190.96 3.00 C 187.83 2.99 183.89 2.93 182.01 5.95 M 181.03 18.03 C 181.00 54.71 181.03 91.40 181.01 128.08 C 181.09 130.22 181.03 132.68 182.63 134.33 C 184.46 136.41 187.46 136.26 189.98 136.39 C 223.32 136.35 256.67 136.34 290.02 136.39 C 292.54 136.25 295.57 136.47 297.40 134.35 C 299.06 132.71 298.91 130.22 298.99 128.07 C 298.96 91.39 299.01 54.71 298.97 18.03 C 259.66 17.98 220.34 17.98 181.03 18.03 M 130.45 36.39 C 127.22 37.89 127.03 41.86 127.03 44.93 C 127.11 83.87 126.97 122.81 127.10 161.74 C 131.76 161.68 136.43 161.69 141.09 161.73 C 141.33 126.46 141.13 91.19 141.18 55.92 C 141.27 54.29 141.26 52.54 142.13 51.10 C 143.43 49.26 145.95 49.48 147.93 49.34 C 158.24 49.31 168.54 49.45 178.85 49.30 C 178.83 44.78 178.83 40.26 178.84 35.75 C 165.56 35.47 152.28 35.74 139.00 35.59 C 136.15 35.65 133.18 35.40 130.45 36.39 M 301.37 35.70 C 301.24 40.25 301.25 44.79 301.38 49.34 C 323.25 49.37 345.12 49.39 366.99 49.33 C 370.07 49.40 373.23 49.03 376.23 49.88 C 378.64 50.79 378.60 53.78 378.69 55.93 C 378.71 78.05 378.60 100.18 378.74 122.30 C 383.48 122.38 388.23 122.37 392.97 122.33 C 393.00 96.19 392.98 70.06 392.99 43.92 C 392.94 41.57 392.86 38.79 390.88 37.17 C 388.70 35.36 385.64 35.75 383.01 35.59 C 355.80 35.73 328.58 35.52 301.37 35.70 M 143.87 52.05 C 143.55 56.02 143.53 60.02 143.55 64.00 C 143.64 96.42 143.46 128.83 143.64 161.25 C 147.35 161.62 152.14 162.24 153.42 166.43 C 154.66 172.54 153.73 178.85 154.03 185.05 C 208.91 184.98 263.78 185.23 318.66 184.92 C 318.47 167.61 318.66 150.31 318.55 133.00 C 318.69 130.14 318.35 126.75 320.64 124.60 C 322.78 122.37 326.10 122.42 328.96 122.34 C 344.73 122.34 360.49 122.43 376.26 122.30 C 376.39 103.20 376.26 84.10 376.32 65.00 C 376.34 60.68 376.35 56.37 376.02 52.06 C 351.09 51.87 326.16 51.89 301.23 52.06 C 301.30 77.72 301.28 103.38 301.25 129.04 C 301.49 132.77 299.44 136.67 295.79 137.91 C 291.97 139.02 287.92 138.59 284.00 138.66 C 252.65 138.61 221.30 138.63 189.95 138.65 C 186.87 138.57 183.35 138.34 181.17 135.85 C 179.08 133.82 178.74 130.81 178.80 128.04 C 178.87 102.71 178.81 77.37 178.84 52.04 C 167.18 51.91 155.52 51.88 143.87 52.05 M 416.62 88.48 C 415.58 91.44 416.13 94.67 416.03 97.74 C 462.90 97.63 509.78 97.72 556.65 97.70 C 556.44 94.52 557.00 91.15 555.79 88.13 C 554.61 85.58 551.63 84.87 549.07 84.96 C 507.35 84.93 465.64 84.98 423.92 84.93 C 421.08 84.76 417.82 85.62 416.62 88.48 M 416.04 99.98 C 415.97 131.67 416.03 163.37 416.01 195.06 C 416.12 197.48 415.85 200.38 417.75 202.23 C 419.92 204.35 423.15 204.35 425.99 204.40 C 466.67 204.33 507.35 204.39 548.03 204.37 C 550.87 204.31 554.42 203.75 555.84 200.94 C 557.07 196.75 556.42 192.30 556.55 188.00 C 556.57 158.69 556.43 129.39 556.62 100.09 C 509.76 99.79 462.90 100.02 416.04 99.98 M 322.82 125.79 C 320.78 127.13 321.04 129.82 320.93 131.93 C 320.99 169.64 320.95 207.35 320.95 245.06 C 321.06 246.70 320.90 248.61 322.19 249.88 C 323.51 251.66 325.99 251.34 327.94 251.49 C 354.96 251.34 381.98 251.64 409.00 251.27 C 437.67 251.43 466.33 251.50 495.00 251.46 C 499.38 251.33 503.85 251.92 508.18 251.06 C 511.09 250.09 511.18 246.60 511.16 244.04 C 511.11 231.58 511.19 219.13 511.08 206.67 C 509.01 206.66 506.95 206.66 504.89 206.68 C 504.75 216.47 504.86 226.27 504.85 236.07 C 504.69 238.02 505.04 240.91 502.71 241.71 C 498.83 242.28 494.90 241.90 491.00 241.96 C 441.00 241.96 391.00 241.95 341.00 241.97 C 337.10 241.90 333.16 242.27 329.29 241.72 C 326.87 241.00 327.12 238.05 327.01 236.07 C 327.07 204.70 327.05 173.32 327.02 141.95 C 327.05 139.57 327.38 137.21 327.78 134.87 C 356.49 134.50 385.20 134.76 413.91 134.73 C 413.94 131.39 413.95 128.05 413.98 124.70 C 385.98 124.52 357.99 124.74 329.99 124.60 C 327.59 124.72 324.92 124.44 322.82 125.79 M 67.44 133.68 C 56.51 135.66 46.91 142.86 41.26 152.31 C 36.65 160.19 35.04 169.76 36.72 178.73 C 38.88 191.33 47.95 202.33 59.60 207.40 C 66.59 210.44 74.45 210.87 81.92 209.81 C 94.89 207.66 106.03 198.06 110.95 186.00 C 114.23 177.30 114.44 167.41 111.35 158.63 C 108.64 150.87 103.15 144.27 96.47 139.57 C 88.12 133.77 77.37 131.84 67.44 133.68 M 329.38 137.12 C 329.49 171.27 329.30 205.42 329.47 239.57 C 360.31 239.86 391.16 239.61 422.00 239.70 C 448.81 239.60 475.63 239.88 502.43 239.56 C 502.52 228.55 502.42 217.55 502.50 206.54 C 476.33 206.71 450.16 206.61 423.99 206.60 C 419.03 206.98 413.72 203.40 413.96 198.07 C 413.96 177.71 414.03 157.35 413.94 137.00 C 385.75 137.00 357.56 136.77 329.38 137.12 M 115.19 164.08 C 115.21 164.78 115.27 166.17 115.29 166.87 C 123.27 167.18 131.25 167.01 139.22 167.05 C 139.25 167.60 139.30 168.71 139.33 169.27 C 131.59 169.31 123.85 169.35 116.11 169.25 C 116.06 170.48 116.01 171.71 115.95 172.94 C 127.96 172.96 139.98 173.09 151.99 172.87 C 151.68 170.64 151.79 168.26 150.79 166.20 C 149.10 163.62 145.70 163.99 143.03 163.90 C 133.75 164.02 124.47 163.83 115.19 164.08 M 115.66 175.12 C 115.12 182.83 112.39 190.45 107.48 196.47 C 105.62 199.18 102.07 201.31 102.37 204.99 C 102.33 219.22 102.45 233.46 102.34 247.69 C 118.80 247.70 135.26 247.68 151.72 247.71 C 151.78 223.49 151.67 199.28 151.78 175.06 C 139.74 175.03 127.70 174.92 115.66 175.12 M 154.07 187.26 C 153.94 198.62 154.00 209.97 154.03 221.32 C 181.02 221.42 208.01 221.35 235.00 221.36 C 262.87 220.30 290.76 221.93 318.63 221.21 C 318.56 209.91 318.55 198.61 318.63 187.32 C 263.77 187.25 208.92 187.36 154.07 187.26 M 242.10 223.97 C 241.21 234.30 240.32 244.63 239.77 254.98 C 253.46 254.95 267.15 255.07 280.84 254.91 C 279.85 244.63 279.35 234.32 278.34 224.04 C 266.26 223.86 254.18 223.98 242.10 223.97 M 102.20 250.06 C 102.38 253.35 101.86 256.85 103.17 259.96 C 104.63 262.75 108.23 262.63 110.93 262.74 C 121.64 262.69 132.36 262.68 143.07 262.73 C 145.78 262.60 149.44 262.79 150.93 260.00 C 152.14 256.84 151.61 253.36 151.79 250.05 C 135.26 249.89 118.73 249.89 102.20 250.06 M 307.49 254.00 C 307.65 256.20 307.51 258.48 308.26 260.59 C 309.61 262.33 311.92 262.64 313.97 262.69 C 379.64 262.71 445.32 262.66 510.99 262.72 C 514.64 262.58 518.46 263.22 521.97 262.01 C 525.15 260.71 524.17 256.69 524.57 253.98 C 494.69 253.92 464.81 254.00 434.93 253.94 C 430.59 253.20 428.90 258.55 424.88 258.97 C 418.96 259.57 412.95 259.52 407.03 258.99 C 403.89 258.77 402.13 255.84 399.76 254.20 C 396.86 253.73 393.91 253.96 390.99 253.94 C 363.16 254.03 335.32 253.88 307.49 254.00 M 402.71 254.34 C 407.96 258.49 414.94 256.58 421.08 256.98 C 423.92 257.31 426.48 256.10 428.60 254.31 C 419.98 253.86 411.32 253.81 402.71 254.34 M 224.25 258.23 C 223.71 259.62 223.45 261.10 223.10 262.55 C 247.78 262.89 272.46 262.62 297.14 262.69 C 296.99 261.26 296.90 259.83 296.60 258.44 C 295.56 256.97 293.59 257.45 292.06 257.27 C 271.02 257.31 249.98 257.33 228.94 257.26 C 227.39 257.43 225.47 257.05 224.25 258.23 Z" />
<path fill="#637dfb" opacity="1.00" d=" M 188.86 7.45 C 190.31 7.51 192.10 6.91 193.21 8.16 C 193.22 8.83 193.23 10.18 193.24 10.85 C 192.13 12.17 190.30 11.46 188.84 11.54 C 188.85 10.52 188.86 8.47 188.86 7.45 Z" />
<path fill="#637dfb" opacity="1.00" d=" M 196.72 9.05 C 196.68 6.73 199.64 7.51 201.11 7.43 C 201.11 8.47 201.11 10.54 201.11 11.58 C 199.27 11.74 195.87 11.92 196.72 9.05 Z" />
<path fill="#637dfb" opacity="1.00" d=" M 204.54 9.03 C 204.61 6.62 207.52 7.35 209.06 7.70 C 209.06 8.61 209.07 10.44 209.07 11.36 C 207.18 12.00 203.80 11.96 204.54 9.03 Z" />
<path fill="#637dfb" opacity="1.00" d=" M 194.66 38.98 C 196.12 38.99 197.58 38.99 199.04 38.99 C 199.04 39.49 199.04 40.50 199.04 41.01 C 197.58 41.01 196.13 41.01 194.68 41.02 C 194.68 40.51 194.67 39.49 194.66 38.98 Z" />
<path fill="#637dfb" opacity="1.00" d=" M 201.41 39.27 C 204.66 38.88 207.94 38.95 211.21 38.95 C 211.21 39.48 211.20 40.53 211.20 41.06 C 207.92 40.71 203.83 42.21 201.41 39.27 Z" />
<path fill="#637dfb" opacity="1.00" d=" M 214.00 39.00 C 217.00 39.00 220.01 39.00 223.01 38.96 C 223.01 39.48 223.01 40.51 223.01 41.03 C 220.00 41.00 217.00 40.99 213.99 41.00 C 214.00 40.50 214.00 39.50 214.00 39.00 Z" />
<path fill="#637dfb" opacity="1.00" d=" M 225.93 38.98 C 231.17 39.06 236.44 38.70 241.67 39.28 C 241.15 39.69 240.12 40.51 239.61 40.92 C 235.06 41.29 230.49 40.94 225.94 41.01 C 225.93 40.50 225.93 39.49 225.93 38.98 Z" />
<path fill="#637dfb" opacity="1.00" d=" M 243.59 38.99 C 250.65 38.96 257.72 38.98 264.78 38.97 C 264.78 39.48 264.78 40.50 264.78 41.01 C 257.75 41.02 250.73 41.03 243.70 41.02 C 243.67 40.51 243.62 39.49 243.59 38.99 Z" />
<path fill="#637dfb" opacity="1.00" d=" M 193.49 50.18 C 195.27 49.65 197.07 49.16 198.88 48.72 C 198.82 49.58 198.71 51.30 198.66 52.16 C 196.92 51.52 195.20 50.88 193.49 50.18 Z" />
<path fill="#637dfb" opacity="1.00" d=" M 201.51 50.07 C 207.53 47.89 214.09 49.52 220.35 49.04 C 220.28 49.70 220.13 51.02 220.06 51.68 C 215.06 51.52 210.06 51.83 205.06 51.61 C 203.67 51.72 202.50 50.95 201.51 50.07 Z" />
<path fill="#637dfb" opacity="1.00" d=" M 222.21 51.00 C 223.54 49.86 225.07 48.79 226.93 49.02 C 235.99 49.05 245.05 48.95 254.11 49.16 C 254.05 49.77 253.94 50.99 253.88 51.60 C 243.33 51.34 232.70 52.36 222.21 51.00 Z" />
<path fill="#637dfb" opacity="1.00" d=" M 256.31 49.46 C 261.08 48.87 265.92 48.86 270.69 49.47 C 269.40 52.04 266.43 51.69 264.01 51.75 C 261.31 51.59 257.81 52.35 256.31 49.46 Z" />
<path fill="#637dfb" opacity="1.00" d=" M 194.06 59.88 C 195.73 59.82 197.40 59.78 199.07 59.74 C 199.02 60.29 198.93 61.39 198.89 61.94 C 197.64 61.95 196.39 61.96 195.14 61.97 C 194.87 61.45 194.33 60.40 194.06 59.88 Z" />
<path fill="#637dfb" opacity="1.00" d=" M 201.42 60.20 C 205.96 59.48 210.56 59.69 215.14 59.75 C 215.11 60.29 215.06 61.37 215.03 61.91 C 210.52 61.57 205.22 63.36 201.42 60.20 Z" />
<path fill="#637dfb" opacity="1.00" d=" M 217.28 60.04 C 222.07 59.55 226.92 59.51 231.70 60.14 C 229.86 62.58 226.64 61.98 223.99 62.10 C 221.65 61.96 218.63 62.50 217.28 60.04 Z" />
<path fill="#637dfb" opacity="1.00" d=" M 233.73 59.69 C 236.21 59.71 238.70 59.73 241.20 59.75 C 241.19 60.30 241.17 61.38 241.16 61.93 C 238.73 61.94 236.31 61.96 233.90 61.97 C 233.85 61.40 233.77 60.26 233.73 59.69 Z" />
<path fill="#637dfb" opacity="1.00" d=" M 194.73 70.04 C 196.17 70.03 197.61 70.03 199.05 70.02 C 199.04 70.54 199.03 71.59 199.02 72.11 C 197.58 72.17 196.14 72.23 194.70 72.29 C 194.71 71.72 194.73 70.60 194.73 70.04 Z" />
<path fill="#637dfb" opacity="1.00" d=" M 201.40 70.51 C 210.27 69.52 219.22 70.26 228.12 70.05 C 228.12 70.59 228.11 71.68 228.10 72.22 C 220.40 72.28 212.69 72.45 204.99 72.26 C 203.51 72.41 202.46 71.34 201.40 70.51 Z" />
<path fill="#637dfb" opacity="1.00" d=" M 231.03 70.08 C 237.00 70.01 242.98 70.02 248.96 70.08 C 248.98 70.60 249.01 71.63 249.03 72.15 C 243.01 72.39 236.98 72.38 230.97 72.15 C 230.98 71.63 231.01 70.59 231.03 70.08 Z" />
<path fill="#637dfb" opacity="1.00" d=" M 202.30 80.45 C 210.85 80.31 219.39 80.37 227.94 80.40 C 227.96 80.96 228.01 82.09 228.03 82.65 C 219.44 82.59 210.85 82.67 202.26 82.59 C 202.27 82.06 202.29 80.98 202.30 80.45 Z" />
<path fill="#637dfb" opacity="1.00" d=" M 230.24 82.20 C 232.91 79.06 237.45 80.75 241.01 80.35 C 248.97 80.86 257.16 79.39 264.98 81.11 L 264.45 82.26 C 260.01 82.98 255.48 82.52 251.00 82.61 C 244.08 82.47 237.13 83.00 230.24 82.20 Z" />
<path fill="#637dfb" opacity="1.00" d=" M 193.74 81.63 C 195.51 81.06 197.31 80.57 199.12 80.12 C 199.03 80.87 198.85 82.37 198.76 83.11 C 197.08 82.63 195.40 82.17 193.74 81.63 Z" />
<path fill="#637dfb" opacity="1.00" d=" M 424.47 89.48 C 425.65 89.13 426.85 88.83 428.06 88.58 C 428.15 90.16 428.24 91.74 428.32 93.32 C 426.73 93.25 425.16 93.15 423.59 93.05 C 423.82 91.84 424.12 90.65 424.47 89.48 Z" />
<path fill="#637dfb" opacity="1.00" d=" M 432.10 89.01 C 433.36 88.99 434.63 89.00 435.90 89.04 C 436.01 90.42 436.09 91.80 436.14 93.19 C 434.70 93.20 433.27 93.20 431.84 93.20 C 431.87 91.80 431.96 90.40 432.10 89.01 Z" />
<path fill="#637dfb" opacity="1.00" d=" M 439.95 88.57 C 441.14 88.83 442.32 89.14 443.48 89.52 C 443.85 90.68 444.17 91.87 444.43 93.06 C 442.84 93.17 441.25 93.25 439.67 93.33 C 439.74 91.74 439.83 90.15 439.95 88.57 Z" />
<path fill="#637dfb" opacity="1.00" d=" M 194.71 90.99 C 196.15 90.99 197.59 90.99 199.04 90.99 C 199.03 91.50 199.03 92.51 199.02 93.02 C 197.59 93.02 196.15 93.01 194.72 93.01 C 194.72 92.51 194.71 91.49 194.71 90.99 Z" />
<path fill="#637dfb" opacity="1.00" d=" M 202.57 90.99 C 208.47 90.97 214.38 90.97 220.28 90.99 C 220.28 91.50 220.28 92.51 220.28 93.01 C 214.38 93.03 208.47 93.03 202.57 93.01 C 202.57 92.51 202.57 91.49 202.57 90.99 Z" />
<path fill="#637dfb" opacity="1.00" d=" M 223.13 90.98 C 229.14 90.98 235.14 90.97 241.15 90.99 C 241.14 91.50 241.14 92.51 241.13 93.01 C 235.13 93.03 229.14 93.02 223.14 93.02 C 223.14 92.51 223.13 91.49 223.13 90.98 Z" />
<path fill="#637dfb" opacity="1.00" d=" M 243.99 91.00 C 247.38 90.99 250.78 90.98 254.17 90.97 C 254.17 91.48 254.16 92.51 254.16 93.03 C 250.77 93.02 247.38 93.01 243.99 93.00 C 243.99 92.50 243.99 91.50 243.99 91.00 Z" />
<path fill="#637dfb" opacity="1.00" d=" M 194.05 103.21 C 194.89 101.28 196.96 101.13 198.76 100.74 C 198.86 101.44 199.07 102.84 199.17 103.53 C 197.46 103.47 195.75 103.37 194.05 103.21 Z" />
<path fill="#637dfb" opacity="1.00" d=" M 201.21 102.13 C 204.04 101.16 207.02 100.86 209.99 100.96 C 218.67 101.16 227.34 100.89 236.02 101.16 C 235.99 101.77 235.94 102.99 235.91 103.60 C 226.24 103.66 216.58 103.61 206.91 103.68 C 204.87 103.81 202.98 103.03 201.21 102.13 Z" />
<path fill="#637dfb" opacity="1.00" d=" M 194.00 112.09 C 195.71 111.94 197.42 111.81 199.14 111.72 C 199.06 112.38 198.90 113.68 198.82 114.33 C 197.06 113.93 195.13 113.67 194.00 112.09 Z" />
<path fill="#637dfb" opacity="1.00" d=" M 201.43 112.24 C 207.13 111.42 212.96 111.47 218.68 112.14 C 216.89 114.64 213.63 113.85 211.01 114.03 C 207.76 113.90 204.08 114.61 201.43 112.24 Z" />
<path fill="#637dfb" opacity="1.00" d=" M 442.50 118.69 C 446.69 118.11 451.09 117.95 455.24 118.88 C 458.65 120.43 457.89 124.96 458.08 128.02 C 457.87 130.83 458.43 134.85 455.35 136.30 C 452.02 137.44 448.40 137.07 444.95 136.99 C 442.90 136.90 440.17 136.26 439.74 133.90 C 439.05 129.99 439.15 125.96 439.58 122.03 C 439.66 120.39 440.82 118.88 442.50 118.69 M 441.97 120.98 C 441.67 124.32 441.44 127.67 441.65 131.03 C 441.80 132.34 441.61 134.35 443.46 134.43 C 447.27 135.03 451.30 135.07 455.05 134.06 C 455.82 129.74 455.34 125.31 455.09 120.95 C 450.73 120.52 446.33 120.53 441.97 120.98 Z" />
<path fill="#637dfb" opacity="1.00" d=" M 499.24 120.75 C 501.76 120.69 504.29 120.60 506.81 120.79 C 507.65 121.83 508.25 123.04 508.92 124.20 C 517.14 126.16 523.91 131.81 528.07 139.08 C 528.09 135.70 528.29 132.20 526.94 129.02 C 526.12 127.34 526.41 125.49 526.63 123.72 C 528.53 123.85 530.43 124.00 532.34 124.18 C 532.20 127.87 530.39 131.23 530.34 134.92 C 530.26 138.66 530.40 142.40 530.47 146.14 C 534.36 147.54 533.19 151.76 533.37 154.99 C 532.35 155.45 531.34 155.91 530.33 156.37 C 530.45 160.27 530.30 164.17 530.36 168.07 C 530.30 171.92 532.34 175.40 532.39 179.25 C 530.33 178.88 527.23 180.09 526.19 177.66 C 525.95 176.15 526.79 174.77 527.19 173.36 C 528.41 170.23 528.01 166.81 528.00 163.53 C 524.67 167.96 521.17 172.61 516.05 175.08 C 512.73 176.89 508.07 177.14 506.69 181.28 C 504.14 181.27 501.60 181.28 499.06 181.30 C 498.98 180.50 498.84 178.90 498.76 178.10 C 487.91 176.09 478.94 167.47 476.36 156.76 C 475.24 156.10 474.09 155.48 473.05 154.70 C 472.84 152.20 472.94 149.69 472.94 147.18 C 473.71 147.09 475.26 146.91 476.03 146.82 C 478.15 135.45 487.41 126.09 498.78 123.91 C 498.90 123.12 499.13 121.54 499.24 120.75 M 501.43 123.25 C 501.43 124.41 501.43 125.58 501.43 126.75 C 502.69 126.84 503.96 126.93 505.23 127.01 C 505.28 125.67 505.29 124.33 505.25 122.99 C 503.97 123.07 502.70 123.16 501.43 123.25 M 495.46 127.54 C 487.37 130.29 480.83 137.39 479.04 145.79 C 479.86 146.67 480.72 147.51 481.63 148.30 C 482.16 151.71 480.57 154.71 479.48 157.74 C 481.67 165.85 488.56 172.90 496.80 174.82 C 500.63 172.69 505.93 171.56 509.34 175.10 C 517.46 172.77 524.74 166.43 526.83 158.09 C 525.22 154.41 522.20 148.13 527.66 146.20 C 525.54 137.49 518.96 129.53 510.06 127.35 C 507.66 127.88 505.61 129.77 503.02 129.41 C 500.30 129.59 498.17 126.45 495.46 127.54 M 475.25 149.33 C 475.28 150.71 475.32 152.09 475.38 153.47 C 476.51 153.49 477.65 153.51 478.80 153.53 C 478.86 152.10 478.91 150.66 478.95 149.23 C 477.71 149.26 476.48 149.29 475.25 149.33 M 527.15 149.21 C 527.09 150.55 527.04 151.90 526.99 153.24 C 528.32 153.30 529.66 153.30 531.01 153.23 C 530.95 151.89 530.90 150.54 530.86 149.20 C 529.61 149.20 528.38 149.21 527.15 149.21 M 501.19 175.15 C 501.20 176.38 501.22 177.62 501.23 178.85 C 502.47 178.91 503.70 178.98 504.95 179.04 C 504.94 177.69 504.94 176.34 504.95 175.00 C 503.69 175.04 502.44 175.10 501.19 175.15 Z" />
<path fill="#637dfb" opacity="1.00" d=" M 442.22 142.17 C 446.66 141.81 451.24 141.59 455.64 142.37 C 458.72 144.50 457.88 148.82 458.08 152.05 C 457.94 154.81 458.21 159.01 454.83 159.93 C 450.41 160.53 445.74 160.79 441.39 159.65 C 438.49 157.37 439.54 153.17 439.27 149.97 C 439.43 147.28 438.89 143.13 442.22 142.17 M 441.98 144.20 C 441.52 148.73 441.51 153.30 441.99 157.83 C 446.36 158.03 450.74 158.03 455.11 157.82 C 455.45 153.28 455.47 148.72 455.06 144.19 C 450.70 143.96 446.33 143.95 441.98 144.20 Z" />
<path fill="#637dfb" opacity="1.00" d=" M 78.30 157.39 C 78.64 155.89 80.08 155.20 81.23 154.38 C 79.93 162.78 76.18 170.55 73.85 178.68 C 72.35 182.23 72.21 186.73 68.99 189.26 C 68.00 186.83 69.33 184.39 70.01 182.07 C 72.89 173.89 75.45 165.59 78.30 157.39 Z" />
<path fill="#637dfb" opacity="1.00" d=" M 51.64 171.92 C 55.25 167.63 59.55 163.73 64.27 160.71 L 65.31 160.72 L 65.51 161.76 C 62.59 165.69 58.41 168.42 54.89 171.77 C 58.53 175.58 63.93 178.19 65.62 183.47 C 60.15 180.78 55.86 176.21 51.64 171.92 Z" />
<path fill="#637dfb" opacity="1.00" d=" M 83.62 160.66 C 85.06 161.05 86.66 161.15 87.82 162.21 C 91.45 165.22 94.84 168.52 98.42 171.58 C 93.76 175.73 89.82 181.31 83.70 183.35 C 85.90 178.24 91.19 175.64 94.84 171.71 C 90.88 168.26 86.52 165.11 83.62 160.66 Z" />
<path fill="#637dfb" opacity="1.00" d=" M 442.46 165.50 C 446.43 164.67 450.65 164.66 454.62 165.46 C 458.32 166.42 457.96 170.99 458.09 173.98 C 457.91 176.97 458.56 180.79 455.91 182.90 C 452.75 184.14 449.24 183.64 445.92 183.70 C 443.70 183.58 440.35 183.65 439.77 180.89 C 439.05 176.99 439.17 172.96 439.58 169.04 C 439.63 167.36 440.85 165.92 442.46 165.50 M 441.91 167.87 C 441.53 172.27 441.52 176.70 441.94 181.10 C 446.33 181.47 450.74 181.45 455.14 181.06 C 455.44 176.67 455.41 172.27 455.20 167.88 C 450.77 167.54 446.33 167.54 441.91 167.87 Z" />
<path fill="#637dfb" opacity="1.00" d=" M 258.32 200.17 C 262.01 198.87 266.46 201.96 266.07 205.96 C 266.28 210.64 260.05 213.49 256.56 210.45 C 252.85 207.83 254.03 201.45 258.32 200.17 M 258.50 202.45 C 255.69 203.56 256.15 208.30 258.96 209.14 C 260.87 210.10 263.21 208.73 263.79 206.80 C 264.72 203.97 261.12 200.94 258.50 202.45 Z" />
<path fill="#637dfb" opacity="1.00" d=" M 124.25 206.08 C 127.00 203.10 131.45 204.76 135.00 204.31 C 137.91 204.68 141.88 203.22 143.75 206.20 C 137.28 206.84 130.70 206.94 124.25 206.08 Z" />
<path fill="#637dfb" opacity="1.00" d=" M 114.39 206.34 C 118.22 204.85 122.53 209.69 120.32 213.26 C 118.96 216.62 113.82 217.12 111.82 214.12 C 109.75 211.50 111.25 207.29 114.39 206.34 M 113.21 211.82 C 113.63 213.94 116.38 213.66 117.99 214.15 C 118.85 211.59 118.19 209.24 116.01 207.62 C 115.00 208.92 112.62 209.83 113.21 211.82 Z" />
<path fill="#637dfb" opacity="1.00" d=" M 602.07 212.90 C 605.81 212.96 608.30 209.27 611.90 209.00 C 615.08 209.91 617.50 212.74 620.92 212.88 C 625.54 213.15 630.17 212.88 634.79 213.03 C 635.03 216.08 635.13 219.15 635.30 222.21 C 638.84 223.50 642.51 225.00 645.00 227.98 C 650.33 233.76 650.54 243.45 645.45 249.44 C 643.01 252.60 639.28 254.27 635.69 255.73 C 635.10 259.22 634.16 262.91 631.03 265.00 L 590.12 265.00 C 587.45 262.79 586.07 259.50 586.31 256.06 C 586.42 241.75 586.15 227.43 586.52 213.12 C 591.70 212.80 596.89 213.15 602.07 212.90 M 607.70 212.63 C 610.24 212.81 612.80 212.82 615.35 212.65 C 612.91 211.20 610.15 211.26 607.70 212.63 M 589.01 215.04 C 588.88 228.03 589.03 241.02 588.91 254.01 C 588.93 256.23 588.84 258.47 589.27 260.67 C 590.40 262.68 592.82 263.02 594.92 262.97 C 604.96 263.01 615.01 262.97 625.06 263.00 C 627.29 262.92 629.78 263.09 631.67 261.67 C 633.04 259.76 632.92 257.29 632.99 255.06 C 632.97 241.72 632.98 228.37 632.97 215.03 C 627.83 215.02 622.69 215.02 617.55 215.02 C 617.51 218.86 617.51 222.71 617.61 226.55 C 619.78 227.09 622.78 226.89 623.93 229.27 C 624.62 233.74 624.53 238.36 624.04 242.86 C 623.56 245.54 620.32 246.04 618.06 246.05 C 615.05 245.97 611.07 246.59 609.12 243.71 C 608.36 238.96 608.42 234.02 609.07 229.26 C 610.22 227.07 612.99 227.10 615.08 226.50 C 615.14 222.68 615.15 218.87 615.15 215.05 C 606.43 214.99 597.72 215.01 589.01 215.04 M 635.19 224.61 C 635.14 225.99 635.10 227.37 635.08 228.75 C 639.24 230.93 643.32 234.81 642.41 239.98 C 642.46 244.49 638.34 246.83 635.34 249.39 C 635.12 250.70 634.97 252.02 634.92 253.36 C 641.15 251.85 646.51 246.57 646.85 239.97 C 647.56 232.74 641.91 226.43 635.19 224.61 M 611.44 229.46 C 610.52 233.98 611.03 238.64 611.02 243.22 C 614.65 243.80 618.35 243.80 621.99 243.21 C 621.94 238.64 622.53 233.98 621.53 229.48 C 618.21 228.80 614.75 228.82 611.44 229.46 M 635.25 231.30 C 634.92 236.40 634.92 241.52 635.24 246.62 C 637.68 244.75 640.60 242.48 640.17 239.00 C 640.59 235.50 637.69 233.20 635.25 231.30 Z" />
<path fill="#637dfb" opacity="1.00" d=" M 125.10 210.00 C 129.37 210.00 133.63 210.00 137.90 209.98 C 137.93 210.53 138.00 211.62 138.03 212.17 C 133.67 212.35 129.30 212.35 124.94 212.17 C 124.98 211.63 125.06 210.55 125.10 210.00 Z" />
<path fill="#637dfb" opacity="1.00" d=" M 124.35 217.83 C 125.89 214.21 130.57 216.16 133.55 216.10 C 131.36 219.06 127.46 217.86 124.35 217.83 Z" />
<path fill="#637dfb" opacity="1.00" d=" M 0.00 244.43 C 2.31 237.66 8.41 231.76 15.93 231.96 C 35.63 231.89 55.34 232.07 75.05 231.88 C 77.22 231.90 79.44 231.87 81.53 232.54 C 82.22 234.51 82.27 236.66 81.95 238.71 C 78.78 240.62 74.87 240.74 71.75 242.73 C 68.63 245.36 68.55 250.73 71.38 253.60 C 74.47 256.11 78.93 255.79 82.04 258.26 C 82.16 260.52 81.84 262.77 81.52 265.00 L 13.49 265.00 C 7.07 263.14 1.66 258.24 0.00 251.65 L 0.00 244.43 M 8.48 236.56 C 2.53 240.42 0.30 248.98 3.92 255.16 C 6.55 260.26 12.34 262.82 17.91 262.68 C 38.53 262.74 59.16 262.70 79.79 262.69 C 79.84 262.02 79.96 260.69 80.02 260.02 C 58.66 259.81 37.30 260.08 15.95 259.89 C 9.77 259.88 4.12 254.28 4.67 248.00 C 4.53 242.07 10.01 236.66 15.95 236.94 C 37.30 237.00 58.65 236.99 80.00 236.95 C 79.98 236.23 79.95 234.78 79.93 234.06 C 61.29 233.96 42.65 234.05 24.01 234.00 C 18.79 234.08 13.03 233.43 8.48 236.56 M 6.99 248.98 C 7.15 254.10 12.04 257.84 16.98 257.63 C 35.60 257.91 54.25 257.45 72.87 257.85 C 70.03 255.96 67.89 252.22 64.06 252.63 C 48.70 252.62 33.33 252.66 17.97 252.66 C 16.21 252.78 14.67 251.92 13.17 251.11 C 18.37 249.93 23.72 250.41 29.00 250.36 C 41.66 250.34 54.32 250.41 66.97 250.32 C 66.98 248.88 66.98 247.45 66.99 246.02 C 49.35 245.98 31.72 246.00 14.08 246.01 C 14.09 245.50 14.09 244.49 14.09 243.99 C 31.07 243.98 48.05 244.06 65.03 243.95 C 68.33 244.24 69.97 240.83 72.23 239.04 C 53.82 239.03 35.41 238.96 17.01 239.07 C 11.65 238.80 6.36 243.43 6.99 248.98 Z" />
<path fill="#637dfb" opacity="1.00" d=" M 545.02 253.01 C 550.50 246.08 561.62 244.82 568.37 250.62 C 572.91 253.96 574.53 259.63 574.95 265.00 L 540.38 265.00 C 541.62 260.92 542.08 256.34 545.02 253.01 M 553.73 249.82 C 548.07 251.51 544.04 256.85 543.47 262.67 C 553.10 262.72 562.73 262.71 572.35 262.68 C 571.74 259.67 571.06 256.46 568.80 254.22 C 566.13 251.33 562.00 248.51 557.97 250.33 C 556.58 250.01 555.15 249.33 553.73 249.82 Z" />
<path fill="#637dfb" opacity="1.00" d=" M 123.99 256.00 C 123.84 252.45 127.77 252.86 130.10 253.63 C 130.08 255.19 130.08 256.75 130.08 258.31 C 127.77 259.17 123.84 259.55 123.99 256.00 Z" />
</g>
</svg>
